<?xml version="1.0" standalone="no"?>
<!DOCTYPE svg PUBLIC "-//W3C//DTD SVG 20010904//EN"
 "http://www.w3.org/TR/2001/REC-SVG-20010904/DTD/svg10.dtd">
<svg version="1.0" xmlns="http://www.w3.org/2000/svg"
 width="1082.000000pt" height="1064.000000pt" viewBox="0 0 1082.000000 1064.000000"
 preserveAspectRatio="xMidYMid meet">
<metadata>
Created by potrace 1.16, written by Peter Selinger 2001-2019
</metadata>
<g transform="translate(0.000000,1064.000000) scale(0.100000,-0.100000)"
fill="#CCCCCC" stroke="none">
<path d="M40 9210 l0 -1430 1435 0 1435 0 0 1430 0 1430 -1435 0 -1435 0 0
-1430z"/>
<path d="M3990 9210 l0 -1430 1430 0 1430 0 0 1430 0 1430 -1430 0 -1430 0 0
-1430z"/>
<path d="M7930 9210 l0 -1430 1435 0 1435 0 0 1430 0 1430 -1435 0 -1435 0 0
-1430z"/>
<path d="M40 5405 l0 -1435 1435 0 1435 0 0 1435 0 1435 -1435 0 -1435 0 0
-1435z"/>
<path d="M3990 5405 l0 -1435 1430 0 1430 0 0 1435 0 1435 -1430 0 -1430 0 0
-1435z"/>
<path d="M7930 5405 l0 -1435 1435 0 1435 0 0 1435 0 1435 -1435 0 -1435 0 0
-1435z"/>
<path d="M40 1455 l0 -1435 1435 0 1435 0 0 1435 0 1435 -1435 0 -1435 0 0
-1435z"/>
<path d="M3990 1455 l0 -1435 1430 0 1430 0 0 1435 0 1435 -1430 0 -1430 0 0
-1435z"/>
<path d="M7930 1455 l0 -1435 1435 0 1435 0 0 1435 0 1435 -1435 0 -1435 0 0
-1435z"/>
</g>
</svg>
