<?xml version="1.0" standalone="no"?>
<!DOCTYPE svg PUBLIC "-//W3C//DTD SVG 20010904//EN"
 "http://www.w3.org/TR/2001/REC-SVG-20010904/DTD/svg10.dtd">
<svg version="1.0" xmlns="http://www.w3.org/2000/svg"
 width="1058.000000pt" height="1146.000000pt" viewBox="0 0 1058.000000 1146.000000"
 preserveAspectRatio="xMidYMid meet">
<metadata>
Created by potrace 1.16, written by Peter Selinger 2001-2019
</metadata>
<g transform="translate(0.000000,1146.000000) scale(0.100000,-0.100000)"
fill="#CCCCCC" stroke="none">
<path d="M4700 11434 c-1264 -49 -2139 -146 -2948 -329 -810 -184 -1336 -434
-1482 -705 -33 -61 -35 -70 -35 -160 0 -78 4 -103 23 -141 170 -343 900 -639
2056 -834 597 -101 1170 -159 2016 -206 301 -16 1484 -23 1845 -10 1231 44
2235 163 3030 360 728 180 1215 426 1340 676 27 54 30 69 30 155 0 80 -4 103
-24 144 -200 406 -1217 750 -2751 930 -378 45 -772 76 -1330 107 -182 10
-1581 20 -1770 13z"/>
<path d="M0 8197 l0 -1315 76 -52 c408 -282 1394 -548 2574 -694 830 -103
1606 -146 2630 -146 908 -1 1548 29 2320 106 1458 145 2612 433 2911 727 l49
48 0 1320 0 1320 -72 -49 c-192 -128 -434 -233 -779 -336 -1367 -407 -3958
-585 -6124 -421 -1543 118 -2716 366 -3420 724 -82 42 -153 78 -157 79 -5 2
-8 -588 -8 -1311z"/>
<path d="M0 5043 l0 -1308 58 -43 c77 -58 347 -189 512 -251 621 -230 1557
-413 2610 -511 775 -72 1399 -95 2335 -87 645 5 825 11 1325 42 1778 111 3283
433 3661 783 l59 54 0 1315 c0 1048 -3 1314 -12 1310 -7 -3 -71 -33 -143 -66
-689 -317 -1866 -545 -3385 -656 -931 -67 -2113 -77 -3050 -24 -1590 88 -2972
344 -3863 713 -48 20 -92 36 -97 36 -7 0 -10 -453 -10 -1307z"/>
<path d="M2 2123 c0 -593 3 -1063 5 -1045 4 27 8 32 31 32 22 0 32 -9 54 -48
297 -526 1637 -901 3668 -1027 542 -33 752 -37 1795 -32 1063 4 1159 7 1740
52 1618 125 2740 410 3155 801 104 99 130 140 130 208 0 30 -4 58 -10 61 -7 4
-10 362 -10 1041 0 706 -3 1034 -10 1034 -6 0 -21 -6 -33 -14 -51 -33 -304
-138 -471 -195 -839 -287 -2066 -472 -3656 -552 -561 -28 -1794 -22 -2390 12
-1589 89 -2905 325 -3817 685 -89 35 -167 64 -173 64 -7 0 -10 -335 -8 -1077z"/>
</g>
</svg>
