<svg xmlns="http://www.w3.org/2000/svg" id="SvgjsSvg4885" width="4096" height="4096" version="1.1" xmlns:xlink="http://www.w3.org/1999/xlink" xmlns:svgjs="http://svgjs.com/svgjs"><defs id="SvgjsDefs4886"></defs><g id="SvgjsG4887" transform="translate(328, 328) scale(34.4)" opacity="1"><defs id="SvgjsDefs1864"></defs><g id="SvgjsG1865" transform="scale(0.35100035100035104)" opacity="1"><g id="SvgjsG1866" class="yRz5BwmAy" transform="translate(0, 0) scale(1)" light-content="false" fill="#0d72ba"><path d="				M 141.95, 142.45				m 0, -142.45
				a 142.45, 142.45, 0, 1, 0, 1, 0
				Z
			"></path></g><g id="SvgjsG1867" class="WwMrcwHG2x" transform="translate(-3.958072598992569, -2.5080745123778847) scale(2.908688330009616)" light-content="true" non-strokable="false" fill="#ffffff"><path d="M53.333 10v6.692c16.85 1.68 30 15.951 30 33.308 0 17.354-13.15 31.624-30 33.304V90C73.864 88.298 90 71.052 90 50c0-21.055-16.136-38.294-36.667-40zm-6.666 73.304c-16.843-1.68-30-15.95-30-33.304 0-17.356 13.157-31.628 30-33.308V10C26.14 11.706 10 28.945 10 50c0 21.052 16.14 38.298 36.667 40v-6.696z"></path><path d="M30.3 46.667C31.888 37.21 40.091 30 50 30s18.112 7.21 19.7 16.667h6.735C74.795 33.516 63.601 23.333 50 23.333c-13.594 0-24.792 10.183-26.436 23.334H30.3zm39.4 6.666C68.112 62.786 59.909 70 50 70s-18.112-7.214-19.7-16.667h-6.735C25.208 66.484 36.406 76.667 50 76.667c13.601 0 24.795-10.183 26.436-23.334H69.7z"></path><path d="M50 36.667c-7.363 0-13.333 5.97-13.333 13.333S42.637 63.333 50 63.333c7.366 0 13.333-5.97 13.333-13.333S57.366 36.667 50 36.667zm0 20a6.667 6.667 0 1 1 0-13.334 6.667 6.667 0 0 1 0 13.334z"></path></g></g></g></svg>