<?xml version="1.0" standalone="no"?>
<!DOCTYPE svg PUBLIC "-//W3C//DTD SVG 20010904//EN"
 "http://www.w3.org/TR/2001/REC-SVG-20010904/DTD/svg10.dtd">
<svg version="1.0" xmlns="http://www.w3.org/2000/svg"
 width="1086.000000pt" height="1077.000000pt" viewBox="0 0 1086.000000 1077.000000"
 preserveAspectRatio="xMidYMid meet">
<metadata>
Created by potrace 1.16, written by Peter Selinger 2001-2019
</metadata>
<g transform="translate(0.000000,1077.000000) scale(0.100000,-0.100000)"
fill="#CCCCCC" stroke="none">
<path d="M4910 10763 c-1019 -103 -1940 -463 -2740 -1069 -174 -132 -362 -292
-355 -304 18 -29 387 -283 570 -392 144 -86 324 -181 496 -263 149 -70 425
-185 443 -185 6 0 52 76 101 167 360 668 808 1266 1397 1867 98 100 178 182
178 184 0 2 -38 1 -90 -5z"/>
<path d="M6241 10602 c591 -606 1045 -1211 1399 -1862 34 -63 63 -116 64 -117
2 -2 120 49 251 110 243 112 500 257 745 421 138 92 315 221 325 236 6 9 -135
134 -285 251 -606 475 -1287 806 -2035 990 -182 44 -524 109 -577 109 -16 0
11 -33 113 -138z"/>
<path d="M5610 10057 l0 -625 57 -32 c118 -67 213 -191 248 -327 54 -209 -47
-445 -239 -557 l-66 -39 0 -150 0 -150 153 6 c401 18 894 101 1313 221 223 65
270 81 267 93 -10 49 -307 534 -464 759 -331 473 -784 989 -1187 1353 l-82 73
0 -625z"/>
<path d="M5037 10268 c-445 -465 -759 -863 -1055 -1338 -115 -185 -282 -479
-282 -498 0 -29 513 -148 853 -197 199 -28 487 -55 600 -55 l77 0 0 149 0 148
-66 39 c-192 112 -293 349 -239 557 35 136 130 260 248 327 l57 32 0 509 c0
304 -4 509 -9 509 -5 0 -88 -82 -184 -182z"/>
<path d="M1427 9013 c-832 -925 -1310 -2070 -1383 -3305 l-6 -118 995 0 995 0
11 48 c18 71 84 198 142 276 89 116 232 221 374 272 l60 22 8 53 c31 207 83
498 112 629 93 413 254 905 409 1254 14 33 25 60 24 62 -2 1 -43 18 -93 37
-503 194 -1004 481 -1511 864 l-31 23 -106 -117z"/>
<path d="M9185 9039 c-349 -264 -800 -529 -1190 -699 -66 -29 -121 -54 -122
-55 -1 0 29 -74 67 -162 311 -722 513 -1545 555 -2268 3 -55 8 -137 11 -182
l6 -83 1145 0 1146 0 -7 113 c-25 395 -91 796 -192 1157 -227 810 -665 1590
-1236 2203 l-63 67 -120 -91z"/>
<path d="M5364 9076 c-50 -22 -74 -61 -74 -121 0 -58 21 -95 70 -120 57 -30
127 -12 169 41 30 38 29 121 -1 159 -39 50 -105 66 -164 41z"/>
<path d="M7345 8093 c-512 -161 -1048 -258 -1612 -289 l-123 -7 0 -1103 0
-1104 1261 0 1262 0 -7 133 c-34 646 -171 1311 -393 1907 -65 174 -200 500
-212 511 -3 3 -82 -19 -176 -48z"/>
<path d="M3460 7928 c-176 -424 -301 -829 -384 -1248 -37 -181 -80 -450 -74
-454 1 -1 42 -15 90 -30 251 -80 454 -283 537 -538 l23 -68 789 0 789 0 0
1104 0 1103 -122 7 c-509 28 -1059 121 -1487 251 -47 14 -87 25 -91 25 -4 0
-35 -69 -70 -152z"/>
<path d="M2720 5846 c-81 -22 -144 -59 -201 -116 -184 -182 -184 -467 0 -650
178 -178 472 -173 650 11 23 24 59 78 79 118 36 74 37 77 37 196 0 120 0 122
-37 196 -62 126 -163 210 -293 244 -70 18 -173 19 -235 1z"/>
<path d="M44 5103 c72 -1232 562 -2402 1388 -3313 l57 -62 153 115 c184 138
454 317 638 422 179 102 518 268 707 345 l152 63 -15 36 c-224 521 -389 1108
-482 1715 l-27 178 -61 22 c-141 51 -285 156 -373 272 -58 78 -124 205 -142
277 l-11 47 -995 0 -995 0 6 -117z"/>
<path d="M3629 5153 c-83 -256 -286 -459 -537 -539 -48 -15 -89 -29 -90 -30
-7 -5 39 -280 78 -474 87 -428 202 -798 398 -1273 18 -44 9 -44 147 -3 448
134 970 222 1488 251 l117 7 0 1064 0 1064 -789 0 -789 0 -23 -67z"/>
<path d="M5610 4156 l0 -1064 118 -6 c64 -4 133 -8 152 -11 35 -4 35 -4 63 64
154 380 575 592 973 491 367 -94 625 -425 627 -803 0 -54 3 -94 8 -90 13 14
119 272 184 448 225 612 357 1256 391 1903 l7 132 -1262 0 -1261 0 0 -1064z"/>
<path d="M8506 5138 c-3 -46 -8 -128 -11 -183 -43 -729 -247 -1558 -564 -2290
l-30 -70 27 -12 c15 -7 96 -44 180 -83 366 -168 739 -392 1080 -649 l163 -123
57 63 c829 913 1311 2066 1387 3317 l7 112 -1145 0 -1145 0 -6 -82z"/>
<path d="M6610 3269 c-74 -14 -165 -67 -225 -130 -217 -227 -151 -592 131
-726 67 -32 90 -38 167 -41 110 -6 194 15 275 68 153 98 234 283 203 460 -47
259 -287 420 -551 369z"/>
<path d="M4975 2699 c-386 -29 -818 -104 -1180 -206 -71 -20 -132 -37 -134
-39 -5 -5 122 -241 217 -404 264 -451 606 -912 977 -1315 157 -171 356 -375
366 -375 5 0 9 529 9 1175 l0 1175 -72 -1 c-40 -1 -122 -6 -183 -10z"/>
<path d="M5610 1419 l0 -1291 82 73 c45 41 166 157 268 260 428 428 771 851
1086 1339 90 139 244 399 244 412 0 5 -32 -16 -72 -47 -87 -66 -188 -116 -294
-147 -112 -32 -314 -32 -427 0 -290 83 -526 325 -593 606 l-17 73 -96 7 c-53
3 -115 6 -138 6 l-43 0 0 -1291z"/>
<path d="M3130 2265 c-424 -176 -880 -434 -1240 -704 -63 -47 -119 -89 -123
-92 -16 -11 195 -196 405 -355 811 -612 1737 -970 2761 -1069 37 -4 67 -5 67
-3 0 2 -80 84 -178 184 -476 485 -845 951 -1186 1497 -78 124 -228 391 -292
520 -24 48 -48 87 -52 86 -4 0 -77 -29 -162 -64z"/>
<path d="M7667 2120 c-219 -411 -497 -829 -822 -1235 -189 -235 -304 -365
-547 -617 -126 -132 -183 -198 -171 -198 30 0 315 48 415 70 825 182 1536 515
2195 1027 112 87 335 278 340 292 3 7 -200 160 -337 254 -131 90 -328 209
-497 301 -140 76 -478 236 -498 236 -5 0 -41 -59 -78 -130z"/>
</g>
</svg>
