<?xml version="1.0" standalone="no"?>
<!DOCTYPE svg PUBLIC "-//W3C//DTD SVG 20010904//EN"
 "http://www.w3.org/TR/2001/REC-SVG-20010904/DTD/svg10.dtd">
<svg version="1.0" xmlns="http://www.w3.org/2000/svg"
 width="512.000000pt" height="512.000000pt" viewBox="0 0 512.000000 512.000000"
 preserveAspectRatio="xMidYMid meet">

<g transform="translate(0.000000,512.000000) scale(0.100000,-0.100000)"
fill="#CCCCCC" stroke="none">
<path d="M1255 5106 c-84 -21 -147 -57 -211 -121 -248 -247 -131 -661 213
-750 86 -23 2520 -23 2606 0 180 47 308 185 339 365 40 231 -118 460 -350 509
-80 17 -2529 14 -2597 -3z"/>
<path d="M850 3763 c-113 -118 -213 -229 -222 -247 -37 -68 -8 -160 62 -196
21 -11 49 -20 61 -20 15 0 60 -37 137 -115 145 -145 207 -180 322 -180 115 0
177 35 322 180 63 63 121 115 128 115 7 0 65 -52 128 -115 145 -145 207 -180
322 -180 115 0 177 35 322 180 63 63 121 115 128 115 7 0 65 -52 128 -115 145
-145 207 -180 322 -180 115 0 177 35 322 180 63 63 121 115 128 115 7 0 65
-52 128 -115 147 -148 206 -180 327 -180 112 1 158 27 311 176 80 78 129 119
143 119 41 0 100 39 121 80 24 48 25 90 4 133 -9 18 -105 124 -212 237 -107
113 -201 211 -208 219 -11 12 -26 9 -101 -15 l-88 -29 -1330 0 -1330 0 -78 28
c-42 15 -81 27 -85 26 -4 0 -99 -97 -212 -216z"/>
<path d="M727 2902 c-10 -16 -59 -232 -77 -336 -130 -770 73 -1595 533 -2162
118 -145 361 -367 432 -394 37 -14 1854 -14 1891 0 81 31 358 293 478 453 474
634 642 1514 441 2320 -14 56 -28 108 -30 115 -4 10 -19 2 -53 -26 -221 -185
-472 -221 -710 -102 -42 21 -96 55 -119 74 -22 20 -45 36 -50 36 -5 0 -33 -18
-63 -41 -116 -87 -262 -139 -390 -139 -129 0 -302 63 -398 146 -22 19 -44 34
-49 34 -5 0 -33 -18 -63 -41 -116 -87 -262 -139 -390 -139 -129 0 -302 63
-398 146 -22 19 -44 34 -49 34 -5 0 -33 -18 -63 -41 -253 -190 -556 -182 -807
21 -34 27 -64 47 -66 42z m2093 -430 c129 -44 250 -86 267 -96 64 -32 67 -51
73 -350 l5 -269 170 -57 c209 -70 230 -80 255 -130 19 -37 20 -58 20 -370 0
-312 -1 -333 -20 -370 -11 -22 -34 -47 -53 -56 -49 -26 -498 -174 -527 -174
-14 0 -121 32 -237 71 l-213 71 -213 -71 c-116 -39 -223 -71 -237 -71 -32 0
-488 152 -530 176 -18 11 -40 36 -51 56 -18 34 -19 62 -19 368 0 440 -22 401
275 500 l170 57 5 269 c6 299 9 318 73 350 53 28 490 172 522 173 17 1 136
-34 265 -77z"/>
<path d="M2405 2191 l-140 -48 0 -193 0 -193 148 -49 147 -50 148 50 147 49 0
193 0 193 -145 49 c-79 26 -149 48 -155 47 -5 0 -73 -22 -150 -48z"/>
<path d="M1955 1441 l-140 -48 0 -193 0 -193 148 -49 147 -50 148 50 147 49 0
193 0 193 -145 49 c-79 26 -149 48 -155 47 -5 0 -73 -22 -150 -48z"/>
<path d="M2855 1441 l-140 -48 0 -193 0 -193 148 -49 147 -50 148 50 147 49 0
193 0 193 -145 49 c-79 26 -149 48 -155 47 -5 0 -73 -22 -150 -48z"/>
</g>
</svg>
