<?xml version="1.0" standalone="no"?>
<!DOCTYPE svg PUBLIC "-//W3C//DTD SVG 20010904//EN"
 "http://www.w3.org/TR/2001/REC-SVG-20010904/DTD/svg10.dtd">
<svg version="1.0" xmlns="http://www.w3.org/2000/svg"
 width="512.000000pt" height="512.000000pt" viewBox="0 0 512.000000 512.000000"
 preserveAspectRatio="xMidYMid meet">

<g transform="translate(0.000000,512.000000) scale(0.100000,-0.100000)"
fill="#CCCCCC" stroke="none">
<path d="M2434 5110 c-193 -35 -422 -149 -617 -308 -233 -189 -470 -493 -581
-745 l-26 -57 30 15 c178 92 518 162 905 186 215 13 826 7 995 -11 276 -28
505 -79 672 -147 l96 -40 -22 51 c-124 280 -383 600 -646 798 -125 94 -326
197 -455 234 -101 28 -264 39 -351 24z"/>
<path d="M2135 3900 c-71 -5 -168 -14 -215 -19 -46 -6 -90 -11 -97 -11 -20 0
-18 -308 3 -408 61 -293 293 -525 586 -586 246 -51 499 26 677 207 97 98 160
207 197 336 22 78 33 451 13 451 -8 0 -72 7 -144 16 -155 17 -825 27 -1020 14z"/>
<path d="M1418 3766 c-113 -49 -167 -83 -229 -146 -231 -230 -148 -575 227
-941 324 -315 770 -544 1099 -566 232 -14 557 100 863 304 152 101 250 182
373 309 191 198 292 381 306 554 15 200 -86 356 -297 458 -164 79 -146 92
-153 -115 -5 -192 -18 -258 -76 -408 -94 -243 -333 -482 -576 -576 -160 -62
-215 -72 -395 -72 -180 0 -235 10 -395 72 -243 94 -482 333 -576 576 -58 150
-71 216 -76 408 -3 97 -8 177 -12 177 -3 0 -41 -15 -83 -34z"/>
<path d="M980 2671 c-270 -337 -408 -543 -585 -871 -208 -385 -376 -846 -392
-1075 -19 -268 140 -534 392 -655 128 -62 190 -70 535 -70 165 0 300 4 300 9
0 5 -59 363 -132 797 -91 550 -131 812 -130 864 1 181 115 343 290 411 49 20
80 23 230 27 l173 4 -83 55 c-187 125 -393 307 -515 455 -30 37 -58 68 -62 68
-3 -1 -13 -9 -21 -19z"/>
<path d="M4057 2622 c-121 -147 -326 -329 -515 -455 l-82 -55 172 -4 c149 -4
181 -7 230 -27 175 -68 289 -230 290 -411 1 -52 -39 -316 -131 -864 -72 -434
-131 -793 -131 -797 0 -5 135 -9 300 -9 235 0 318 3 377 16 270 55 484 272
539 544 21 107 15 201 -25 358 -128 506 -484 1188 -859 1650 -43 52 -82 100
-88 108 -6 8 -14 14 -16 14 -3 0 -31 -31 -61 -68z"/>
<path d="M1360 1799 c-39 -16 -79 -60 -90 -99 -7 -28 17 -193 128 -865 l138
-830 1024 0 1024 0 138 830 c110 670 135 837 128 865 -11 41 -51 84 -93 99
-38 15 -2361 14 -2397 0z m1270 -609 c45 -23 80 -80 80 -130 0 -76 -74 -150
-151 -150 -46 0 -108 39 -130 82 -37 72 -14 151 57 194 48 29 92 30 144 4z"/>
</g>
</svg>
