<svg xmlns="http://www.w3.org/2000/svg" id="SvgjsSvg3867" width="4096" height="1757.02308918556" version="1.1" xmlns:xlink="http://www.w3.org/1999/xlink" xmlns:svgjs="http://svgjs.com/svgjs"><defs id="SvgjsDefs3868"></defs><g id="SvgjsG3869" transform="translate(328, 328) scale(34.4)" opacity="1"><defs id="SvgjsDefs1642"></defs><g id="SvgjsG1643" transform="scale(0.21645021645021645)" opacity="1"><g id="SvgjsG1644" class="f8CkbxeDY" transform="translate(161.16545550169806, 0) scale(1)" light-content="false" fill="#303030"><path d="				M 54.59571044329463, 55.09571044329463				m 0, -55.09571044329463
				a 55.09571044329463, 55.09571044329463, 0, 1, 0, 1, 0
				Z
			"></path></g><g id="SvgjsG1645" class="text" transform="translate(314.7903204338531, 147.15898495496316) scale(1)" light-content="false" fill="#303030"><path d="M-125.96 -16.68L-125.96 -8.68C-127.2 -8.17 -128.49 -7.91 -129.85 -7.91C-132.14 -7.91 -133.97 -8.63 -135.34 -10.08C-136.71 -11.52 -137.39 -13.44 -137.39 -15.82C-137.39 -18.26 -136.7 -20.19 -135.32 -21.6C-133.93 -23.02 -132.06 -23.73 -129.71 -23.73C-126.97 -23.73 -124.6 -22.57 -122.62 -20.25L-115.79 -26.26C-117.42 -28.25 -119.46 -29.76 -121.92 -30.8C-124.37 -31.84 -127.15 -32.36 -130.25 -32.36C-133.69 -32.36 -136.77 -31.66 -139.5 -30.26C-142.22 -28.86 -144.35 -26.9 -145.87 -24.38C-147.39 -21.87 -148.15 -19.01 -148.15 -15.82C-148.15 -12.62 -147.39 -9.77 -145.87 -7.25C-144.35 -4.74 -142.25 -2.78 -139.56 -1.38C-136.88 0.02 -133.85 0.72 -130.48 0.72C-128.1 0.72 -125.67 0.38 -123.2 -0.32C-120.73 -1.01 -118.56 -2 -116.7 -3.3L-116.7 -16.68Z M-86.28 -9.99C-86.19 -11.43 -86.14 -12.23 -86.14 -12.38C-86.14 -15.07 -86.75 -17.37 -87.97 -19.3C-89.19 -21.23 -90.84 -22.69 -92.9 -23.68C-94.96 -24.68 -97.25 -25.17 -99.75 -25.17C-102.4 -25.17 -104.79 -24.63 -106.91 -23.55C-109.03 -22.46 -110.71 -20.95 -111.93 -19C-113.15 -17.06 -113.76 -14.85 -113.76 -12.38C-113.76 -9.94 -113.14 -7.74 -111.9 -5.79C-110.67 -3.83 -108.92 -2.3 -106.66 -1.2C-104.4 -0.1 -101.78 0.45 -98.8 0.45C-94.01 0.45 -90.41 -0.87 -88 -3.53L-93.33 -8.9C-94.2 -8.24 -95.01 -7.77 -95.75 -7.5C-96.49 -7.23 -97.4 -7.1 -98.48 -7.1C-99.75 -7.1 -100.8 -7.34 -101.65 -7.84C-102.49 -8.34 -103.09 -9.05 -103.45 -9.99ZM-102.28 -17.36C-101.58 -17.93 -100.71 -18.21 -99.66 -18.21C-98.6 -18.21 -97.73 -17.92 -97.04 -17.33C-96.34 -16.74 -95.89 -15.94 -95.68 -14.91L-103.63 -14.91C-103.42 -15.97 -102.97 -16.78 -102.28 -17.36Z M-64.72 -0.86L-67.16 -7.95C-67.82 -7.5 -68.59 -7.28 -69.47 -7.28C-70.1 -7.28 -70.61 -7.49 -71 -7.91C-71.39 -8.33 -71.59 -8.92 -71.59 -9.67L-71.59 -15.91L-66.53 -15.91L-66.53 -23.37L-71.59 -23.37L-71.59 -30.28L-81.8 -30.28L-81.8 -23.37L-85.19 -23.37L-85.19 -15.91L-81.8 -15.91L-81.8 -9.58C-81.8 -6.24 -80.87 -3.73 -79 -2.06C-77.13 -0.38 -74.47 0.45 -71 0.45C-68.35 0.45 -66.26 0.02 -64.72 -0.86Z M-44.13 -0.16C-41.65 0.43 -39.09 0.72 -36.47 0.72C-33.31 0.72 -30.62 0.25 -28.41 -0.7C-26.19 -1.65 -24.53 -2.93 -23.41 -4.54C-22.3 -6.15 -21.74 -7.95 -21.74 -9.94C-21.74 -12.23 -22.35 -14.04 -23.57 -15.37C-24.79 -16.69 -26.23 -17.65 -27.89 -18.24C-29.54 -18.82 -31.58 -19.34 -33.99 -19.8C-35.86 -20.16 -37.2 -20.5 -38.01 -20.81C-38.82 -21.13 -39.23 -21.6 -39.23 -22.24C-39.23 -23.56 -37.86 -24.22 -35.12 -24.22C-32.35 -24.22 -29.41 -23.44 -26.3 -21.87L-23.09 -29.6C-24.69 -30.51 -26.54 -31.19 -28.63 -31.66C-30.73 -32.13 -32.86 -32.36 -35.03 -32.36C-38.19 -32.36 -40.88 -31.89 -43.09 -30.96C-45.31 -30.02 -46.97 -28.74 -48.09 -27.12C-49.2 -25.49 -49.76 -23.68 -49.76 -21.69C-49.76 -19.4 -49.16 -17.59 -47.95 -16.25C-46.75 -14.91 -45.33 -13.94 -43.7 -13.36C-42.08 -12.77 -40.04 -12.22 -37.6 -11.71C-35.7 -11.31 -34.34 -10.95 -33.51 -10.62C-32.68 -10.29 -32.27 -9.79 -32.27 -9.13C-32.27 -8.56 -32.59 -8.13 -33.22 -7.84C-33.85 -7.56 -34.91 -7.41 -36.38 -7.41C-38.1 -7.41 -39.89 -7.68 -41.76 -8.2C-43.63 -8.73 -45.32 -9.43 -46.82 -10.3L-50.26 -2.53C-48.66 -1.54 -46.62 -0.75 -44.13 -0.16Z M7.28 -9.99C7.37 -11.43 7.41 -12.23 7.41 -12.38C7.41 -15.07 6.8 -17.37 5.58 -19.3C4.36 -21.23 2.72 -22.69 0.66 -23.68C-1.41 -24.68 -3.69 -25.17 -6.19 -25.17C-8.84 -25.17 -11.23 -24.63 -13.36 -23.55C-15.48 -22.46 -17.15 -20.95 -18.37 -19C-19.59 -17.06 -20.2 -14.85 -20.2 -12.38C-20.2 -9.94 -19.58 -7.74 -18.35 -5.79C-17.11 -3.83 -15.37 -2.3 -13.11 -1.2C-10.85 -0.1 -8.23 0.45 -5.24 0.45C-0.45 0.45 3.15 -0.87 5.56 -3.53L0.23 -8.9C-0.65 -8.24 -1.45 -7.77 -2.19 -7.5C-2.93 -7.23 -3.84 -7.1 -4.93 -7.1C-6.19 -7.1 -7.25 -7.34 -8.09 -7.84C-8.93 -8.34 -9.54 -9.05 -9.9 -9.99ZM-8.72 -17.36C-8.03 -17.93 -7.16 -18.21 -6.1 -18.21C-5.05 -18.21 -4.17 -17.92 -3.48 -17.33C-2.79 -16.74 -2.34 -15.94 -2.12 -14.91L-10.08 -14.91C-9.87 -15.97 -9.42 -16.78 -8.72 -17.36Z M16.38 -1.18C18.6 -0.09 21.11 0.45 23.91 0.45C26.92 0.45 29.5 -0.2 31.64 -1.49C33.78 -2.79 35.25 -4.58 36.07 -6.87L28.16 -10.76C27.19 -8.59 25.76 -7.5 23.86 -7.5C22.66 -7.5 21.66 -7.92 20.86 -8.77C20.06 -9.61 19.66 -10.82 19.66 -12.38C19.66 -13.92 20.06 -15.11 20.86 -15.95C21.66 -16.8 22.66 -17.22 23.86 -17.22C25.76 -17.22 27.19 -16.13 28.16 -13.97L36.07 -17.85C35.25 -20.14 33.78 -21.93 31.64 -23.23C29.5 -24.53 26.92 -25.17 23.91 -25.17C21.11 -25.17 18.6 -24.63 16.38 -23.55C14.17 -22.46 12.44 -20.95 11.19 -19C9.94 -17.06 9.31 -14.85 9.31 -12.38C9.31 -9.91 9.94 -7.7 11.19 -5.74C12.44 -3.78 14.17 -2.26 16.38 -1.18Z M65.44 -24.72L55.23 -24.72L55.23 -13.11C55.23 -11.39 54.9 -10.13 54.23 -9.33C53.57 -8.53 52.74 -8.14 51.75 -8.14C50.69 -8.14 49.9 -8.5 49.35 -9.22C48.81 -9.94 48.54 -11.15 48.54 -12.84L48.54 -24.72L38.33 -24.72L38.33 -11.07C38.33 -7.22 39.28 -4.33 41.17 -2.42C43.07 -0.5 45.59 0.45 48.72 0.45C50.08 0.45 51.36 0.22 52.56 -0.25C53.77 -0.72 54.82 -1.42 55.73 -2.35L55.73 0L65.44 0Z M87.68 -25.17C84.15 -25.17 81.49 -24.13 79.68 -22.06L79.68 -24.72L69.96 -24.72L69.96 0L80.18 0L80.18 -10.98C80.18 -14.54 81.92 -16.32 85.42 -16.32C86.11 -16.32 86.87 -16.26 87.68 -16.13Z M116.51 -9.99C116.6 -11.43 116.65 -12.23 116.65 -12.38C116.65 -15.07 116.04 -17.37 114.82 -19.3C113.6 -21.23 111.96 -22.69 109.89 -23.68C107.83 -24.68 105.55 -25.17 103.05 -25.17C100.39 -25.17 98.01 -24.63 95.88 -23.55C93.76 -22.46 92.09 -20.95 90.87 -19C89.65 -17.06 89.04 -14.85 89.04 -12.38C89.04 -9.94 89.65 -7.74 90.89 -5.79C92.12 -3.83 93.87 -2.3 96.13 -1.2C98.39 -0.1 101.01 0.45 104 0.45C108.79 0.45 112.39 -0.87 114.8 -3.53L109.46 -8.9C108.59 -8.24 107.78 -7.77 107.05 -7.5C106.31 -7.23 105.4 -7.1 104.31 -7.1C103.05 -7.1 101.99 -7.34 101.15 -7.84C100.3 -8.34 99.7 -9.05 99.34 -9.99ZM100.52 -17.36C101.21 -17.93 102.08 -18.21 103.14 -18.21C104.19 -18.21 105.06 -17.92 105.76 -17.33C106.45 -16.74 106.9 -15.94 107.11 -14.91L99.16 -14.91C99.37 -15.97 99.82 -16.78 100.52 -17.36Z M147.2 -33.54L136.99 -33.54L136.99 -23.05C135.54 -24.47 133.45 -25.17 130.71 -25.17C128.54 -25.17 126.54 -24.65 124.72 -23.61C122.89 -22.58 121.45 -21.08 120.38 -19.14C119.31 -17.2 118.77 -14.94 118.77 -12.38C118.77 -9.82 119.31 -7.56 120.38 -5.6C121.45 -3.65 122.89 -2.15 124.72 -1.11C126.54 -0.07 128.54 0.45 130.71 0.45C133.75 0.45 136.01 -0.38 137.49 -2.03L137.49 0L147.2 0ZM136.04 -8.79C135.29 -7.93 134.32 -7.5 133.15 -7.5C131.97 -7.5 131.01 -7.93 130.25 -8.79C129.5 -9.65 129.12 -10.85 129.12 -12.38C129.12 -13.92 129.5 -15.11 130.25 -15.95C131.01 -16.8 131.97 -17.22 133.15 -17.22C134.32 -17.22 135.29 -16.8 136.04 -15.95C136.79 -15.11 137.17 -13.92 137.17 -12.38C137.17 -10.85 136.79 -9.65 136.04 -8.79Z"></path></g><g id="SvgjsG1646" class="text" transform="translate(51.47, 109.35507958077332) scale(1)" light-content="false" fill="#303030"><path d="M11.26 0L51.47 0L19.49 -43.63L50.7 -84.93L13.9 -84.93L1.16 -66.92L-10.95 -84.93L-50.54 -84.93L-19.33 -42.08L-51.47 0L-13.43 0L-0.39 -18.17Z"></path></g><g id="SvgjsG1647" class="text" transform="translate(322.37385779298063, 109.70152325548733) scale(1)" light-content="false" fill="#0d72ba"><path d="M-18.32 -80.27L-18.32 0L18.32 0L18.32 -80.27L50.15 -80.27L50.15 -108.69L-50.15 -108.69L-50.15 -80.27Z"></path></g><g id="SvgjsG1648" class="text" transform="translate(132.03004076238182, 109.84399662030089) scale(1)" light-content="false" fill="#0d72ba"><path d="M-18.32 -108.69L-18.32 0L18.32 0L18.32 -108.69Z"></path></g><g id="SvgjsG1649" class="text" transform="translate(420.5392052111532, 108.98833992118045) scale(1)" light-content="false" fill="#303030"><path d="M41.46 -25.62L4.66 -25.62L39.75 -64.75L39.75 -84.93L-38.35 -84.93L-38.35 -59.31L-4.5 -59.31L-39.59 -20.19L-39.59 0L41.46 0Z"></path></g><g id="SvgjsG1650" class="egqA3qXNxB" transform="translate(159.63458276159534, -0.9700536827250232) scale(1.125)" light-content="true" non-strokable="false" fill="#0d72ba"><path d="M53.333 10v6.692c16.85 1.68 30 15.951 30 33.308 0 17.354-13.15 31.624-30 33.304V90C73.864 88.298 90 71.052 90 50c0-21.055-16.136-38.294-36.667-40zm-6.666 73.304c-16.843-1.68-30-15.95-30-33.304 0-17.356 13.157-31.628 30-33.308V10C26.14 11.706 10 28.945 10 50c0 21.052 16.14 38.298 36.667 40v-6.696z"></path><path d="M30.3 46.667C31.888 37.21 40.091 30 50 30s18.112 7.21 19.7 16.667h6.735C74.795 33.516 63.601 23.333 50 23.333c-13.594 0-24.792 10.183-26.436 23.334H30.3zm39.4 6.666C68.112 62.786 59.909 70 50 70s-18.112-7.214-19.7-16.667h-6.735C25.208 66.484 36.406 76.667 50 76.667c13.601 0 24.795-10.183 26.436-23.334H69.7z"></path><path d="M50 36.667c-7.363 0-13.333 5.97-13.333 13.333S42.637 63.333 50 63.333c7.366 0 13.333-5.97 13.333-13.333S57.366 36.667 50 36.667zm0 20a6.667 6.667 0 1 1 0-13.334 6.667 6.667 0 0 1 0 13.334z"></path></g></g></g></svg>