<svg xmlns="http://www.w3.org/2000/svg" id="SvgjsSvg6705" width="4096" height="1743.8530549595696" version="1.1" xmlns:xlink="http://www.w3.org/1999/xlink" xmlns:svgjs="http://svgjs.com/svgjs"><defs id="SvgjsDefs6706"></defs><g id="SvgjsG6707" transform="translate(328, 328) scale(34.4)" opacity="1"><defs id="SvgjsDefs2904"></defs><g id="SvgjsG2905" transform="scale(0.21645021645021645)" opacity="1"><g id="SvgjsG2906" class="b51tCC3LO" transform="translate(163.04385994406525, 0.8815535288939031) scale(1)" light-content="false" fill="#303030"><path d="				M 52.681196498333875, 53.181196498333875				m 0, -53.181196498333875
				a 53.181196498333875, 53.181196498333875, 0, 1, 0, 1, 0
				Z
			"></path></g><g id="SvgjsG2907" class="waQ0r8vTEF" transform="translate(163.42596739232198, 1.392517769196031) scale(1.0608108742586995)" light-content="true" non-strokable="false" fill="#0d72ba"><path d="M53.333 10v6.692c16.85 1.68 30 15.951 30 33.308 0 17.354-13.15 31.624-30 33.304V90C73.864 88.298 90 71.052 90 50c0-21.055-16.136-38.294-36.667-40zm-6.666 73.304c-16.843-1.68-30-15.95-30-33.304 0-17.356 13.157-31.628 30-33.308V10C26.14 11.706 10 28.945 10 50c0 21.052 16.14 38.298 36.667 40v-6.696z"></path><path d="M30.3 46.667C31.888 37.21 40.091 30 50 30s18.112 7.21 19.7 16.667h6.735C74.795 33.516 63.601 23.333 50 23.333c-13.594 0-24.792 10.183-26.436 23.334H30.3zm39.4 6.666C68.112 62.786 59.909 70 50 70s-18.112-7.214-19.7-16.667h-6.735C25.208 66.484 36.406 76.667 50 76.667c13.601 0 24.795-10.183 26.436-23.334H69.7z"></path><path d="M50 36.667c-7.363 0-13.333 5.97-13.333 13.333S42.637 63.333 50 63.333c7.366 0 13.333-5.97 13.333-13.333S57.366 36.667 50 36.667zm0 20a6.667 6.667 0 1 1 0-13.334 6.667 6.667 0 0 1 0 13.334z"></path></g><g id="SvgjsG2908" class="text" transform="translate(53.815053072866974, 107.26939370139952) scale(1)" light-content="false" fill="#303030"><path d="M10.95 0L50.08 0L18.96 -42.45L49.33 -82.64L13.52 -82.64L1.13 -65.11L-10.65 -82.64L-49.17 -82.64L-18.81 -40.94L-50.08 0L-13.07 0L-0.38 -17.68Z"></path></g><g id="SvgjsG2909" class="text" transform="translate(319.0662529407332, 107.62) scale(1)" light-content="false" fill="#0d72ba"><path d="M-18.14 -79.49L-18.14 0L18.14 0L18.14 -79.49L49.66 -79.49L49.66 -107.62L-49.66 -107.62L-49.66 -79.49Z"></path></g><g id="SvgjsG2910" class="text" transform="translate(134.69171117539997, 108.49307164464324) scale(1)" light-content="false" fill="#0d72ba"><path d="M-18.14 -107.62L-18.14 0L18.14 0L18.14 -107.62Z"></path></g><g id="SvgjsG2911" class="text" transform="translate(419.62693456427985, 107.54722352224776) scale(1)" light-content="false" fill="#303030"><path d="M40.34 -24.93L4.53 -24.93L38.68 -63L38.68 -82.64L-37.32 -82.64L-37.32 -57.71L-4.38 -57.71L-38.52 -19.64L-38.52 0L40.34 0Z"></path></g><g id="SvgjsG2912" class="text" transform="translate(231.31, 139.46134945259186) scale(1)" light-content="false" fill="#303030"><path d="M-225.12 -0.99C-223.19 0.02 -221.01 0.52 -218.6 0.52C-216.39 0.52 -214.41 0.13 -212.67 -0.65C-210.93 -1.43 -209.5 -2.56 -208.37 -4.04L-213.22 -8.38C-214.64 -6.59 -216.3 -5.7 -218.21 -5.7C-219.82 -5.7 -221.11 -6.22 -222.09 -7.25C-223.07 -8.28 -223.56 -9.67 -223.56 -11.41C-223.56 -13.14 -223.07 -14.53 -222.09 -15.56C-221.11 -16.59 -219.82 -17.11 -218.21 -17.11C-216.3 -17.11 -214.64 -16.22 -213.22 -14.44L-208.37 -18.77C-209.5 -20.25 -210.93 -21.38 -212.67 -22.16C-214.41 -22.94 -216.39 -23.33 -218.6 -23.33C-221.01 -23.33 -223.19 -22.83 -225.12 -21.82C-227.05 -20.81 -228.57 -19.4 -229.67 -17.58C-230.76 -15.77 -231.31 -13.71 -231.31 -11.41C-231.31 -9.1 -230.76 -7.04 -229.67 -5.23C-228.57 -3.42 -227.05 -2 -225.12 -0.99Z M-186.53 -17.83L-193.51 -17.83L-197.26 -8.28L-200.94 -17.83L-208.5 -17.83L-201 0.23C-201.42 0.71 -202.03 0.95 -202.83 0.95C-203.26 0.95 -203.71 0.86 -204.18 0.68C-204.65 0.51 -205.07 0.28 -205.44 0L-207.88 5.05C-207.29 5.53 -206.5 5.91 -205.48 6.21C-204.47 6.5 -203.47 6.65 -202.47 6.65C-200.45 6.65 -198.74 6.18 -197.35 5.25C-195.96 4.31 -194.8 2.68 -193.87 0.36Z M-169.18 -17.03C-170.5 -17.78 -171.94 -18.15 -173.5 -18.15C-175.48 -18.15 -176.99 -17.64 -178.03 -16.62L-178.03 -24.18L-185.39 -24.18L-185.39 0L-178.39 0L-178.39 -1.47C-177.32 -0.27 -175.69 0.33 -173.5 0.33C-171.94 0.33 -170.5 -0.05 -169.18 -0.8C-167.87 -1.55 -166.82 -2.63 -166.05 -4.04C-165.28 -5.45 -164.9 -7.08 -164.9 -8.93C-164.9 -10.78 -165.28 -12.4 -166.05 -13.8C-166.82 -15.2 -167.87 -16.28 -169.18 -17.03ZM-173.17 -6.34C-173.72 -5.72 -174.41 -5.41 -175.26 -5.41C-176.11 -5.41 -176.8 -5.72 -177.35 -6.34C-177.89 -6.96 -178.16 -7.82 -178.16 -8.93C-178.16 -10.04 -177.89 -10.9 -177.35 -11.5C-176.8 -12.11 -176.11 -12.42 -175.26 -12.42C-174.41 -12.42 -173.72 -12.11 -173.17 -11.5C-172.63 -10.9 -172.36 -10.04 -172.36 -8.93C-172.36 -7.82 -172.63 -6.96 -173.17 -6.34Z M-143.71 -7.2C-143.65 -8.24 -143.62 -8.82 -143.62 -8.93C-143.62 -10.86 -144.06 -12.52 -144.94 -13.92C-145.82 -15.31 -147 -16.36 -148.49 -17.08C-149.98 -17.79 -151.62 -18.15 -153.43 -18.15C-155.34 -18.15 -157.06 -17.76 -158.59 -16.98C-160.12 -16.2 -161.33 -15.1 -162.21 -13.7C-163.09 -12.3 -163.53 -10.71 -163.53 -8.93C-163.53 -7.17 -163.08 -5.58 -162.19 -4.17C-161.3 -2.76 -160.04 -1.66 -158.41 -0.86C-156.78 -0.07 -154.89 0.33 -152.74 0.33C-149.29 0.33 -146.69 -0.63 -144.95 -2.54L-148.8 -6.42C-149.43 -5.94 -150.01 -5.61 -150.54 -5.41C-151.07 -5.21 -151.73 -5.12 -152.51 -5.12C-153.43 -5.12 -154.19 -5.3 -154.79 -5.65C-155.4 -6.01 -155.84 -6.53 -156.1 -7.2ZM-155.25 -12.51C-154.75 -12.93 -154.12 -13.13 -153.36 -13.13C-152.6 -13.13 -151.97 -12.92 -151.47 -12.5C-150.97 -12.07 -150.64 -11.49 -150.49 -10.75L-156.23 -10.75C-156.08 -11.51 -155.75 -12.1 -155.25 -12.51Z M-128.53 -18.15C-131.07 -18.15 -132.99 -17.4 -134.3 -15.9L-134.3 -17.83L-141.3 -17.83L-141.3 0L-133.94 0L-133.94 -7.92C-133.94 -10.48 -132.68 -11.76 -130.16 -11.76C-129.66 -11.76 -129.11 -11.72 -128.53 -11.63Z M-100.89 -3.98L-99.36 0L-91.41 0L-101.38 -22.81L-108.94 -22.81L-118.91 0L-111.09 0L-109.56 -3.98ZM-103.01 -9.52L-107.44 -9.52L-105.23 -15.25Z M-88.09 -0.16C-86.61 0.16 -85.11 0.33 -83.59 0.33C-81.61 0.33 -79.93 0.05 -78.54 -0.49C-77.15 -1.03 -76.1 -1.76 -75.41 -2.67C-74.71 -3.58 -74.37 -4.59 -74.37 -5.7C-74.37 -7.16 -74.75 -8.28 -75.52 -9.06C-76.29 -9.84 -77.19 -10.37 -78.2 -10.66C-79.21 -10.94 -80.44 -11.17 -81.89 -11.34C-82.83 -11.45 -83.51 -11.56 -83.95 -11.68C-84.38 -11.8 -84.6 -12 -84.6 -12.29C-84.6 -12.85 -83.8 -13.13 -82.19 -13.13C-80.32 -13.13 -78.6 -12.7 -77.04 -11.83L-75.02 -16.69C-75.93 -17.16 -77.03 -17.53 -78.33 -17.78C-79.62 -18.03 -80.94 -18.15 -82.29 -18.15C-84.22 -18.15 -85.88 -17.88 -87.25 -17.34C-88.63 -16.79 -89.67 -16.07 -90.37 -15.15C-91.06 -14.24 -91.41 -13.21 -91.41 -12.06C-91.41 -10.6 -91.02 -9.48 -90.25 -8.7C-89.48 -7.92 -88.59 -7.39 -87.56 -7.12C-86.54 -6.85 -85.31 -6.63 -83.85 -6.45C-82.89 -6.34 -82.2 -6.24 -81.78 -6.13C-81.36 -6.02 -81.14 -5.82 -81.14 -5.54C-81.14 -5.26 -81.31 -5.05 -81.65 -4.9C-81.99 -4.76 -82.58 -4.69 -83.43 -4.69C-84.49 -4.69 -85.59 -4.83 -86.72 -5.12C-87.85 -5.4 -88.82 -5.79 -89.65 -6.29L-91.67 -1.43C-90.76 -0.91 -89.56 -0.49 -88.09 -0.16Z M-69.67 -0.16C-68.2 0.16 -66.7 0.33 -65.18 0.33C-63.2 0.33 -61.52 0.05 -60.13 -0.49C-58.73 -1.03 -57.69 -1.76 -57 -2.67C-56.3 -3.58 -55.95 -4.59 -55.95 -5.7C-55.95 -7.16 -56.34 -8.28 -57.11 -9.06C-57.88 -9.84 -58.77 -10.37 -59.78 -10.66C-60.79 -10.94 -62.03 -11.17 -63.48 -11.34C-64.42 -11.45 -65.1 -11.56 -65.53 -11.68C-65.97 -11.8 -66.19 -12 -66.19 -12.29C-66.19 -12.85 -65.38 -13.13 -63.78 -13.13C-61.91 -13.13 -60.19 -12.7 -58.63 -11.83L-56.61 -16.69C-57.52 -17.16 -58.62 -17.53 -59.91 -17.78C-61.21 -18.03 -62.53 -18.15 -63.87 -18.15C-65.81 -18.15 -67.46 -17.88 -68.84 -17.34C-70.22 -16.79 -71.26 -16.07 -71.95 -15.15C-72.65 -14.24 -73 -13.21 -73 -12.06C-73 -10.6 -72.61 -9.48 -71.84 -8.7C-71.07 -7.92 -70.17 -7.39 -69.15 -7.12C-68.13 -6.85 -66.89 -6.63 -65.44 -6.45C-64.48 -6.34 -63.79 -6.24 -63.37 -6.13C-62.94 -6.02 -62.73 -5.82 -62.73 -5.54C-62.73 -5.26 -62.9 -5.05 -63.24 -4.9C-63.57 -4.76 -64.17 -4.69 -65.01 -4.69C-66.08 -4.69 -67.18 -4.83 -68.3 -5.12C-69.43 -5.4 -70.41 -5.79 -71.24 -6.29L-73.26 -1.43C-72.35 -0.91 -71.15 -0.49 -69.67 -0.16Z M-34.25 -17.83L-41.62 -17.83L-41.62 -9.45C-41.62 -8.21 -41.85 -7.31 -42.33 -6.73C-42.81 -6.15 -43.41 -5.87 -44.12 -5.87C-44.88 -5.87 -45.46 -6.13 -45.85 -6.65C-46.24 -7.17 -46.44 -8.04 -46.44 -9.26L-46.44 -17.83L-53.8 -17.83L-53.8 -7.98C-53.8 -5.2 -53.12 -3.12 -51.75 -1.74C-50.38 -0.36 -48.57 0.33 -46.31 0.33C-45.33 0.33 -44.41 0.16 -43.54 -0.18C-42.67 -0.52 -41.91 -1.02 -41.26 -1.69L-41.26 0L-34.25 0Z M-18.22 -18.15C-20.76 -18.15 -22.68 -17.4 -23.98 -15.9L-23.98 -17.83L-30.99 -17.83L-30.99 0L-23.63 0L-23.63 -7.92C-23.63 -10.48 -22.37 -11.76 -19.85 -11.76C-19.35 -11.76 -18.8 -11.72 -18.22 -11.63Z M-1.14 -16.05C-2.79 -17.45 -5.18 -18.15 -8.31 -18.15C-9.74 -18.15 -11.18 -17.97 -12.63 -17.61C-14.07 -17.26 -15.31 -16.76 -16.33 -16.13L-13.98 -11.28C-13.39 -11.71 -12.69 -12.05 -11.86 -12.3C-11.04 -12.55 -10.22 -12.68 -9.42 -12.68C-7.42 -12.68 -6.3 -11.98 -6.06 -10.59L-9.03 -10.59C-11.76 -10.59 -13.81 -10.13 -15.15 -9.22C-16.5 -8.31 -17.17 -6.97 -17.17 -5.21C-17.17 -4.17 -16.92 -3.23 -16.41 -2.4C-15.9 -1.56 -15.15 -0.9 -14.16 -0.41C-13.17 0.08 -11.97 0.33 -10.56 0.33C-8.04 0.33 -6.35 -0.56 -5.51 -2.35L-5.51 0L1.34 0L1.34 -9.58C1.34 -12.49 0.51 -14.65 -1.14 -16.05ZM-6.94 -4.53C-7.35 -4.25 -7.82 -4.11 -8.34 -4.11C-8.89 -4.11 -9.31 -4.24 -9.63 -4.51C-9.94 -4.79 -10.1 -5.13 -10.1 -5.54C-10.1 -6.54 -9.35 -7.04 -7.85 -7.04L-6.03 -7.04L-6.03 -5.8C-6.22 -5.24 -6.53 -4.81 -6.94 -4.53Z M22.21 -16.16C20.87 -17.49 19.11 -18.15 16.91 -18.15C15.85 -18.15 14.86 -17.98 13.95 -17.63C13.04 -17.28 12.23 -16.76 11.54 -16.07L11.54 -17.83L4.53 -17.83L4.53 0L11.89 0L11.89 -8.38C11.89 -9.61 12.15 -10.52 12.66 -11.1C13.17 -11.67 13.84 -11.96 14.66 -11.96C16.12 -11.96 16.85 -10.94 16.85 -8.9L16.85 0L24.21 0L24.21 -10.17C24.21 -12.84 23.54 -14.84 22.21 -16.16Z M31.89 -0.85C33.48 -0.07 35.29 0.33 37.31 0.33C39.49 0.33 41.34 -0.14 42.89 -1.08C44.43 -2.01 45.49 -3.3 46.08 -4.95L40.38 -7.76C39.68 -6.19 38.65 -5.41 37.28 -5.41C36.41 -5.41 35.69 -5.71 35.11 -6.32C34.54 -6.93 34.25 -7.8 34.25 -8.93C34.25 -10.04 34.54 -10.9 35.11 -11.5C35.69 -12.11 36.41 -12.42 37.28 -12.42C38.65 -12.42 39.68 -11.63 40.38 -10.07L46.08 -12.87C45.49 -14.52 44.43 -15.82 42.89 -16.75C41.34 -17.68 39.49 -18.15 37.31 -18.15C35.29 -18.15 33.48 -17.76 31.89 -16.98C30.29 -16.2 29.04 -15.1 28.14 -13.7C27.24 -12.3 26.79 -10.71 26.79 -8.93C26.79 -7.15 27.24 -5.55 28.14 -4.14C29.04 -2.73 30.29 -1.63 31.89 -0.85Z M66.48 -7.2C66.55 -8.24 66.58 -8.82 66.58 -8.93C66.58 -10.86 66.14 -12.52 65.26 -13.92C64.38 -15.31 63.19 -16.36 61.71 -17.08C60.22 -17.79 58.57 -18.15 56.77 -18.15C54.86 -18.15 53.14 -17.76 51.6 -16.98C50.07 -16.2 48.87 -15.1 47.99 -13.7C47.11 -12.3 46.67 -10.71 46.67 -8.93C46.67 -7.17 47.11 -5.58 48 -4.17C48.89 -2.76 50.15 -1.66 51.78 -0.86C53.41 -0.07 55.3 0.33 57.45 0.33C60.91 0.33 63.5 -0.63 65.24 -2.54L61.4 -6.42C60.77 -5.94 60.19 -5.61 59.65 -5.41C59.12 -5.21 58.46 -5.12 57.68 -5.12C56.77 -5.12 56.01 -5.3 55.4 -5.65C54.79 -6.01 54.36 -6.53 54.1 -7.2ZM54.94 -12.51C55.44 -12.93 56.07 -13.13 56.83 -13.13C57.59 -13.13 58.22 -12.92 58.72 -12.5C59.22 -12.07 59.55 -11.49 59.7 -10.75L53.97 -10.75C54.12 -11.51 54.44 -12.1 54.94 -12.51Z M95.39 -21.77C93.82 -22.46 91.99 -22.81 89.88 -22.81L78.9 -22.81L78.9 0L86.59 0L86.59 -5.61L89.88 -5.61C91.99 -5.61 93.82 -5.95 95.39 -6.65C96.95 -7.34 98.16 -8.34 99 -9.65C99.85 -10.95 100.27 -12.47 100.27 -14.21C100.27 -15.95 99.85 -17.47 99 -18.77C98.16 -20.07 96.95 -21.07 95.39 -21.77ZM91.74 -12.24C91.21 -11.77 90.43 -11.54 89.39 -11.54L86.59 -11.54L86.59 -16.88L89.39 -16.88C90.43 -16.88 91.21 -16.65 91.74 -16.18C92.26 -15.71 92.52 -15.06 92.52 -14.21C92.52 -13.36 92.26 -12.7 91.74 -12.24Z M102.88 -24.18L102.88 0L110.25 0L110.25 -24.18Z M128.66 -16.05C127.01 -17.45 124.62 -18.15 121.49 -18.15C120.05 -18.15 118.62 -17.97 117.17 -17.61C115.73 -17.26 114.49 -16.76 113.47 -16.13L115.82 -11.28C116.41 -11.71 117.11 -12.05 117.94 -12.3C118.76 -12.55 119.58 -12.68 120.38 -12.68C122.38 -12.68 123.5 -11.98 123.74 -10.59L120.77 -10.59C118.03 -10.59 115.99 -10.13 114.65 -9.22C113.3 -8.31 112.62 -6.97 112.62 -5.21C112.62 -4.17 112.88 -3.23 113.39 -2.4C113.9 -1.56 114.65 -0.9 115.64 -0.41C116.63 0.08 117.83 0.33 119.24 0.33C121.76 0.33 123.44 -0.56 124.29 -2.35L124.29 0L131.13 0L131.13 -9.58C131.13 -12.49 130.31 -14.65 128.66 -16.05ZM122.86 -4.53C122.44 -4.25 121.98 -4.11 121.46 -4.11C120.91 -4.11 120.48 -4.24 120.17 -4.51C119.85 -4.79 119.7 -5.13 119.7 -5.54C119.7 -6.54 120.45 -7.04 121.95 -7.04L123.77 -7.04L123.77 -5.8C123.57 -5.24 123.27 -4.81 122.86 -4.53Z M147.46 -0.62L145.7 -5.74C145.22 -5.41 144.67 -5.25 144.04 -5.25C143.58 -5.25 143.21 -5.4 142.93 -5.7C142.65 -6.01 142.51 -6.43 142.51 -6.97L142.51 -11.47L146.16 -11.47L146.16 -16.85L142.51 -16.85L142.51 -21.83L135.14 -21.83L135.14 -16.85L132.7 -16.85L132.7 -11.47L135.14 -11.47L135.14 -6.91C135.14 -4.5 135.82 -2.69 137.16 -1.48C138.51 -0.28 140.43 0.33 142.93 0.33C144.84 0.33 146.35 0.01 147.46 -0.62Z M157.27 -16.85L157.27 -16.88C157.27 -17.58 157.43 -18.09 157.74 -18.43C158.06 -18.77 158.49 -18.93 159.03 -18.93C159.53 -18.93 160.08 -18.79 160.69 -18.51L162.45 -23.63C161.93 -23.91 161.28 -24.13 160.5 -24.28C159.71 -24.43 158.91 -24.51 158.09 -24.51C155.57 -24.51 153.61 -23.83 152.22 -22.47C150.83 -21.11 150.13 -19.27 150.13 -16.95L150.13 -16.85L147.69 -16.85L147.69 -11.47L150.13 -11.47L150.13 0L157.5 0L157.5 -11.47L161.15 -11.47L161.15 -16.85Z M167.13 -0.86C168.7 -0.07 170.48 0.33 172.46 0.33C174.46 0.33 176.24 -0.07 177.82 -0.86C179.39 -1.66 180.62 -2.75 181.5 -4.15C182.38 -5.56 182.82 -7.15 182.82 -8.93C182.82 -10.71 182.38 -12.3 181.5 -13.7C180.62 -15.1 179.39 -16.2 177.82 -16.98C176.24 -17.76 174.46 -18.15 172.46 -18.15C170.48 -18.15 168.7 -17.76 167.13 -16.98C165.55 -16.2 164.32 -15.1 163.43 -13.7C162.54 -12.3 162.09 -10.71 162.09 -8.93C162.09 -7.15 162.54 -5.56 163.43 -4.15C164.32 -2.75 165.55 -1.66 167.13 -0.86ZM174.54 -6.34C174 -5.72 173.3 -5.41 172.46 -5.41C171.61 -5.41 170.91 -5.72 170.37 -6.34C169.83 -6.96 169.56 -7.82 169.56 -8.93C169.56 -10.04 169.83 -10.9 170.37 -11.5C170.91 -12.11 171.61 -12.42 172.46 -12.42C173.3 -12.42 174 -12.11 174.54 -11.5C175.09 -10.9 175.36 -10.04 175.36 -8.93C175.36 -7.82 175.09 -6.96 174.54 -6.34Z M197.91 -18.15C195.37 -18.15 193.44 -17.4 192.14 -15.9L192.14 -17.83L185.13 -17.83L185.13 0L192.5 0L192.5 -7.92C192.5 -10.48 193.76 -11.76 196.28 -11.76C196.78 -11.76 197.32 -11.72 197.91 -11.63Z M228.75 -16.16C227.46 -17.49 225.74 -18.15 223.59 -18.15C222.37 -18.15 221.25 -17.92 220.23 -17.45C219.21 -16.98 218.34 -16.32 217.62 -15.45C217.02 -16.36 216.23 -17.04 215.28 -17.48C214.32 -17.93 213.25 -18.15 212.05 -18.15C210.01 -18.15 208.33 -17.49 207 -16.16L207 -17.83L199.99 -17.83L199.99 0L207.36 0L207.36 -8.7C207.36 -9.83 207.57 -10.66 207.99 -11.18C208.42 -11.7 208.98 -11.96 209.67 -11.96C211 -11.96 211.66 -10.94 211.66 -8.9L211.66 0L219.03 0L219.03 -8.7C219.03 -9.83 219.24 -10.66 219.66 -11.18C220.08 -11.7 220.64 -11.96 221.34 -11.96C222.66 -11.96 223.33 -10.94 223.33 -8.9L223.33 0L230.69 0L230.69 -10.17C230.69 -12.84 230.05 -14.84 228.75 -16.16Z"></path></g></g></g></svg>