<?xml version="1.0" standalone="no"?>
<!DOCTYPE svg PUBLIC "-//W3C//DTD SVG 20010904//EN"
 "http://www.w3.org/TR/2001/REC-SVG-20010904/DTD/svg10.dtd">
<svg version="1.0" xmlns="http://www.w3.org/2000/svg"
 width="512.000000pt" height="512.000000pt" viewBox="0 0 512.000000 512.000000"
 preserveAspectRatio="xMidYMid meet">

<g transform="translate(0.000000,512.000000) scale(0.100000,-0.100000)"
fill="#000000" stroke="none">
<path d="M1105 5102 c-62 -21 -114 -60 -150 -111 -57 -84 -55 -27 -55 -1366
l0 -1232 781 -679 c429 -373 790 -685 802 -693 29 -21 125 -21 154 0 12 8 373
320 802 694 l781 678 -2 1251 -3 1251 -21 46 c-28 60 -93 125 -153 153 l-46
21 -1420 2 c-1326 2 -1423 1 -1470 -15z m1630 -617 c192 -31 336 -87 492 -191
293 -195 477 -497 524 -859 26 -202 -20 -473 -112 -657 -26 -52 -29 -68 -29
-156 0 -55 -5 -123 -10 -153 -34 -180 -179 -325 -359 -359 -72 -14 -1290 -14
-1362 0 -180 34 -325 179 -359 359 -5 30 -10 98 -10 153 0 89 -3 104 -29 156
-100 201 -140 455 -108 687 59 413 295 736 670 915 218 105 466 142 692 105z"/>
<path d="M2418 4190 c-310 -49 -594 -280 -697 -567 -91 -249 -78 -486 39 -733
l50 -106 0 -132 c0 -113 3 -139 20 -172 31 -60 78 -80 190 -80 l90 0 0 90 c0
71 4 99 20 130 23 45 80 80 130 80 50 0 107 -35 130 -80 16 -31 20 -59 20
-130 l0 -90 150 0 150 0 0 90 c0 112 20 159 80 190 50 25 90 25 140 0 60 -31
80 -78 80 -190 l0 -90 90 0 c112 0 159 20 190 80 17 33 20 59 20 172 0 133 0
134 36 208 88 184 109 270 108 450 -1 105 -6 153 -23 215 -85 317 -329 560
-646 645 -91 24 -276 34 -367 20z m-237 -682 c167 -84 186 -97 206 -133 28
-50 29 -94 3 -145 -23 -46 -81 -80 -133 -80 -24 0 -93 30 -218 93 -167 83
-186 96 -206 132 -13 22 -23 55 -23 73 0 50 35 109 78 131 67 36 94 29 293
-71z m1049 72 c45 -23 80 -81 80 -132 0 -18 -10 -51 -23 -73 -20 -36 -39 -49
-206 -132 -125 -63 -194 -93 -218 -93 -52 0 -110 34 -133 80 -26 51 -25 95 3
145 20 36 39 49 206 133 199 100 224 106 291 72z"/>
<path d="M380 3251 c-118 -104 -216 -193 -218 -199 -1 -5 95 -96 215 -201
l218 -192 3 196 c1 107 1 283 0 390 l-3 195 -215 -189z"/>
<path d="M4520 3049 l0 -392 23 20 c12 11 111 97 220 192 108 95 197 176 197
181 0 6 -90 87 -407 364 l-33 28 0 -393z"/>
<path d="M0 1507 l0 -1276 508 336 c279 185 653 433 831 550 l324 214 -29 29
c-16 15 -378 330 -804 700 -426 370 -787 684 -802 698 l-28 26 0 -1277z"/>
<path d="M4290 2060 c-454 -395 -824 -721 -824 -726 1 -5 372 -255 825 -555
l824 -545 3 639 c1 351 1 923 0 1272 l-3 633 -825 -718z"/>
<path d="M1650 964 c-135 -89 -517 -343 -850 -563 l-605 -401 2365 0 2365 0
-405 268 c-223 148 -606 402 -852 565 l-448 296 -177 -156 c-197 -173 -242
-208 -293 -230 -134 -58 -260 -56 -391 6 -52 24 -66 36 -289 231 -85 75 -159
139 -165 142 -5 3 -120 -68 -255 -158z"/>
</g>
</svg>
