<svg xmlns="http://www.w3.org/2000/svg" viewBox="0 0 146.57 146.57"><defs><style>.cls-1{fill:#0071bc;}.cls-2{fill:#fff;}</style></defs><title>Asset 1admin guide</title><g id="Layer_2" data-name="Layer 2"><g id="Layer_1-2" data-name="Layer 1"><path class="cls-1" d="M72.62,0c-1.2,0-2.39.05-3.59.12s-2.38.17-3.57.3S63.08.7,61.9.89s-2.35.4-3.53.64-2.33.52-3.49.82-2.3.62-3.45,1S49.16,4.07,48,4.48,45.8,5.33,44.7,5.8s-2.19,1-3.27,1.48-2.14,1.07-3.19,1.64-2.08,1.17-3.1,1.79-2,1.27-3,1.94-2,1.37-2.92,2.09S27.31,16.2,26.39,17s-1.82,1.56-2.7,2.37S22,21,21.11,21.82s-1.66,1.72-2.46,2.61-1.57,1.8-2.32,2.73S14.85,29,14.14,30s-1.39,1.95-2,3-1.3,2-1.9,3S9,38.07,8.45,39.12s-1.09,2.13-1.6,3.22-1,2.18-1.43,3.28S4.54,47.85,4.15,49,3.38,51.24,3,52.39s-.65,2.3-.94,3.46-.54,2.33-.77,3.5S.91,61.71.74,62.89.43,65.26.32,66.45.13,68.84.07,70,0,72.42,0,73.62,0,76,.1,77.2s.16,2.39.28,3.58.28,2.37.46,3.56.39,2.35.63,3.53.5,2.33.79,3.49.62,2.31,1,3.46.73,2.27,1.14,3.4.84,2.24,1.3,3.34,1,2.19,1.47,3.27,1,2.15,1.62,3.2,1.16,2.09,1.78,3.12,1.26,2,1.93,3,1.36,2,2.07,2.93,1.45,1.9,2.21,2.82,1.55,1.83,2.35,2.71,1.63,1.75,2.48,2.59,1.72,1.67,2.61,2.47S26,129.27,26.91,130s1.87,1.49,2.83,2.2,1.94,1.39,2.93,2.06,2,1.3,3,1.91,2.07,1.2,3.12,1.76,2.12,1.1,3.21,1.61,2.17,1,3.28,1.45,2.22.89,3.34,1.29,2.27.78,3.41,1.12,2.3.67,3.46,1,2.33.55,3.5.78,2.35.44,3.53.61,2.37.32,3.56.44,2.39.2,3.58.26,2.39.09,3.59.09,2.39,0,3.58-.09,2.39-.14,3.58-.26,2.37-.26,3.56-.44,2.36-.38,3.53-.61,2.34-.49,3.5-.78,2.32-.61,3.46-1,2.28-.72,3.41-1.12,2.24-.83,3.34-1.29,2.2-.94,3.28-1.45,2.16-1,3.21-1.61,2.1-1.15,3.12-1.76,2-1.25,3-1.91,2-1.35,2.93-2.06,1.91-1.45,2.83-2.2,1.84-1.54,2.73-2.34,1.75-1.62,2.6-2.47,1.67-1.71,2.48-2.59,1.59-1.79,2.35-2.71,1.5-1.86,2.21-2.82,1.41-1.94,2.07-2.93,1.31-2,1.93-3,1.21-2.06,1.78-3.12,1.11-2.12,1.62-3.2,1-2.17,1.47-3.27.89-2.22,1.3-3.34.78-2.26,1.14-3.4.67-2.3,1-3.46.56-2.32.8-3.49.44-2.35.62-3.53.33-2.37.46-3.56.21-2.38.28-3.58.1-2.39.1-3.58,0-2.39-.07-3.59-.14-2.39-.25-3.58-.25-2.38-.42-3.56-.37-2.36-.6-3.54-.48-2.34-.76-3.5-.6-2.31-.94-3.46-.71-2.28-1.11-3.41-.82-2.25-1.27-3.36-.93-2.2-1.43-3.28-1-2.16-1.6-3.22S137,37,136.37,36s-1.24-2-1.89-3-1.35-2-2-3-1.44-1.91-2.19-2.84-1.53-1.84-2.33-2.73-1.61-1.76-2.45-2.61-1.7-1.68-2.58-2.49-1.78-1.6-2.7-2.37-1.86-1.5-2.81-2.22-1.93-1.42-2.92-2.09-2-1.32-3-1.94-2.06-1.22-3.11-1.79-2.12-1.12-3.19-1.64-2.17-1-3.27-1.48-2.21-.9-3.34-1.32-2.25-.79-3.39-1.15-2.29-.68-3.45-1-2.32-.58-3.49-.82-2.35-.46-3.53-.64S82.3.54,81.11.42,78.73.19,77.54.12,75.15,0,74,0H72.62"/><path class="cls-2" d="M77.62,15.52v9.7a48.57,48.57,0,0,1,0,96.61v9.71a58.23,58.23,0,0,0,0-116ZM68,121.83a48.57,48.57,0,0,1,0-96.61v-9.7a58.23,58.23,0,0,0,0,116v-9.71"/><path class="cls-2" d="M44.22,68.7a29,29,0,0,1,57.14,0h9.76a38.64,38.64,0,0,0-76.68,0Zm57.14,9.66a29,29,0,0,1-57.14,0H34.45a38.64,38.64,0,0,0,76.68,0h-9.77"/><path class="cls-2" d="M72.79,54.19A19.34,19.34,0,1,0,92.12,73.53,19.34,19.34,0,0,0,72.79,54.19Zm0,29a10.69,10.69,0,0,1-1.27-.08,10.47,10.47,0,0,1-1.24-.25,9.93,9.93,0,0,1-1.2-.4A10.79,10.79,0,0,1,68,81.91a10.72,10.72,0,0,1-2-1.54,10.65,10.65,0,0,1-.83-1,10.08,10.08,0,0,1-.7-1,8.59,8.59,0,0,1-.56-1.14,10,10,0,0,1-.41-1.2,10.08,10.08,0,0,1-.25-1.24,10,10,0,0,1,0-2.52A10.08,10.08,0,0,1,63.44,71a10,10,0,0,1,.41-1.2,8.59,8.59,0,0,1,.56-1.14,10.08,10.08,0,0,1,.7-1,10.65,10.65,0,0,1,.83-1,8.4,8.4,0,0,1,1-.83,9.65,9.65,0,0,1,1-.71,9.07,9.07,0,0,1,1.13-.55,8.49,8.49,0,0,1,1.2-.41,10.47,10.47,0,0,1,1.24-.25,10.69,10.69,0,0,1,1.27-.08c.31,0,.63,0,.94,0s.63.08.94.14.62.14.92.23a9.44,9.44,0,0,1,.89.32,8.48,8.48,0,0,1,.86.41,8.21,8.21,0,0,1,.81.48c.27.18.52.37.77.57a8.42,8.42,0,0,1,.7.64,7,7,0,0,1,.63.7c.2.24.39.5.57.76s.34.54.49.81.28.57.4.86a9.44,9.44,0,0,1,.32.89c.09.31.17.61.23.92a7.91,7.91,0,0,1,.14.94c0,.32,0,.63,0,1s0,.63,0,1a7.62,7.62,0,0,1-.14.94c-.06.31-.14.61-.23.92a9.44,9.44,0,0,1-.32.89c-.12.29-.25.58-.4.86a8.3,8.3,0,0,1-.49.81c-.18.26-.37.52-.57.76a8.42,8.42,0,0,1-.63.71c-.22.22-.46.43-.7.63s-.5.39-.77.57-.53.34-.81.49a8.42,8.42,0,0,1-.86.4,9.44,9.44,0,0,1-.89.32c-.3.09-.61.17-.92.23s-.62.11-.94.14-.63,0-.94,0h0"/></g></g></svg>