<?xml version="1.0" standalone="no"?>
<!DOCTYPE svg PUBLIC "-//W3C//DTD SVG 20010904//EN"
 "http://www.w3.org/TR/2001/REC-SVG-20010904/DTD/svg10.dtd">
<svg version="1.0" xmlns="http://www.w3.org/2000/svg"
 width="1047.000000pt" height="1224.000000pt" viewBox="0 0 1047.000000 1224.000000"
 preserveAspectRatio="xMidYMid meet">
<metadata>
Created by potrace 1.16, written by Peter Selinger 2001-2019
</metadata>
<g transform="translate(0.000000,1224.000000) scale(0.100000,-0.100000)"
fill="#CCCCCC" stroke="none">
<path d="M3380 12226 c-187 -44 -314 -119 -467 -280 -298 -311 -516 -872 -622
-1601 -40 -277 -71 -672 -71 -922 0 -117 -2 -132 -17 -137 -10 -2 -56 -12
-103 -21 -351 -70 -779 -236 -1025 -399 -106 -70 -266 -227 -313 -308 -147
-250 -115 -533 83 -734 338 -344 1138 -535 2520 -604 795 -39 2915 -39 3705 0
1395 69 2185 258 2526 605 82 83 147 201 165 300 25 135 -6 300 -78 425 -54
92 -207 243 -328 323 -237 156 -634 311 -990 386 -55 12 -109 23 -121 26 -20
4 -21 12 -27 232 -27 967 -216 1754 -539 2243 -85 130 -257 302 -363 364 -158
92 -278 121 -460 113 -146 -7 -214 -24 -427 -111 -330 -133 -856 -236 -1208
-236 -352 0 -873 102 -1210 237 -91 36 -196 75 -235 85 -90 25 -316 33 -395
14z"/>
<path d="M1980 7008 c0 -111 19 -377 36 -518 160 -1286 876 -2388 1895 -2919
732 -380 1579 -425 2344 -124 400 158 735 381 1065 712 606 606 993 1430 1105
2351 15 123 41 558 34 564 -2 2 -49 -2 -104 -10 -735 -96 -1806 -132 -3570
-120 -1177 7 -1653 22 -2230 71 -189 16 -514 52 -552 60 -22 5 -23 3 -23 -67z
m2408 -394 c47 -19 97 -67 125 -119 20 -36 22 -55 22 -205 0 -158 -1 -168 -26
-215 -29 -57 -92 -110 -149 -125 -26 -7 -210 -10 -542 -8 -494 3 -504 3 -543
25 -47 25 -85 64 -111 113 -16 30 -19 58 -19 205 0 190 7 215 77 282 66 64 52
62 616 63 441 0 518 -2 550 -16z m2767 -3 c60 -27 121 -102 135 -164 19 -82 9
-323 -14 -367 -26 -49 -64 -88 -111 -113 -39 -22 -49 -22 -543 -25 -332 -2
-516 1 -542 8 -57 15 -120 68 -149 125 -25 47 -26 57 -26 215 0 184 7 211 77
277 66 64 52 62 618 62 478 1 518 -1 555 -18z"/>
<path d="M2015 4705 c-189 -41 -459 -190 -711 -390 -146 -116 -395 -371 -500
-510 -159 -213 -288 -440 -282 -500 5 -55 30 -59 271 -39 408 32 693 -6 1071
-143 l99 -37 -104 -27 c-308 -81 -614 -237 -869 -442 -292 -236 -546 -577
-713 -957 -185 -424 -277 -877 -277 -1366 l0 -254 5232 0 5231 0 -6 197 c-31
942 -310 1694 -817 2204 -200 201 -393 341 -635 459 -155 76 -267 118 -424
159 l-104 27 99 37 c236 86 445 132 684 149 130 10 191 9 377 -6 186 -14 228
-15 250 -4 55 26 42 84 -54 248 -139 237 -281 418 -479 610 -405 394 -911 661
-1109 585 -41 -15 -54 -29 -117 -123 -347 -519 -780 -932 -1272 -1216 -289
-167 -588 -290 -915 -375 l-145 -38 -285 -806 c-157 -444 -287 -807 -291 -807
-3 0 -133 363 -290 807 l-286 806 -144 38 c-904 236 -1643 776 -2198 1605 -50
75 -68 94 -102 108 -48 19 -102 19 -185 1z"/>
</g>
</svg>
