<?xml version="1.0" standalone="no"?>
<!DOCTYPE svg PUBLIC "-//W3C//DTD SVG 20010904//EN"
 "http://www.w3.org/TR/2001/REC-SVG-20010904/DTD/svg10.dtd">
<svg version="1.0" xmlns="http://www.w3.org/2000/svg"
 width="1051.000000pt" height="1204.000000pt" viewBox="0 0 1051.000000 1204.000000"
 preserveAspectRatio="xMidYMid meet">
<metadata>
Created by potrace 1.16, written by Peter Selinger 2001-2019
</metadata>
<g transform="translate(0.000000,1204.000000) scale(0.100000,-0.100000)"
fill="#CCCCCC" stroke="none">
<path d="M2633 11290 c-1547 -464 -2509 -758 -2536 -773 -24 -14 -56 -44 -70
-66 l-27 -41 0 -2958 c0 -2901 0 -2961 20 -3068 94 -522 376 -1059 848 -1614
214 -253 613 -634 932 -891 854 -689 2006 -1339 3045 -1719 213 -78 352 -120
395 -120 76 0 484 144 850 300 923 394 1860 951 2590 1539 322 260 730 650
941 901 495 588 759 1108 856 1690 16 98 18 292 21 2980 2 2045 0 2888 -8
2919 -17 68 -61 124 -122 155 -29 15 -1171 362 -2537 771 l-2484 745 -111 -1
-111 0 -2492 -749z m2733 -325 c58 -37 100 -100 114 -174 7 -35 10 -770 10
-2147 l0 -2094 1903 -2 c1807 -3 1904 -4 1942 -21 50 -23 100 -70 128 -122 22
-40 22 -42 25 -840 3 -847 1 -907 -43 -1082 -231 -914 -1455 -2071 -3070
-2899 -348 -178 -816 -384 -1043 -459 -156 -51 -302 34 -332 194 -7 35 -10
849 -10 2392 l0 2339 -1902 2 c-1732 3 -1906 4 -1939 19 -51 23 -107 75 -132
123 l-22 41 -3 1674 c-1 1102 1 1686 8 1710 5 21 20 53 32 71 57 83 -50 47
2119 700 1929 580 2027 609 2095 607 59 -2 79 -7 120 -32z"/>
</g>
</svg>
