<?xml version="1.0" encoding="utf-8"?>
<svg xmlns="http://www.w3.org/2000/svg" style="margin: auto; background: rgb(0, 0, 0); display: block; shape-rendering: auto;" width="286" height="27" preserveAspectRatio="xMidYMid">
<style type="text/css">
  text {
    text-anchor: middle; font-size: 24px; opacity: 0;
  }
</style>
<g style="transform-origin: 143px 13.5px; transform: scale(1.09091);">
<g transform="translate(143,13.5)">
  <g transform="translate(1,0)"><g class="path" style="transform: scale(0.91); transform-origin: -114.03px 0.850873px; animation: 1.88679s linear -1.13915s infinite normal forwards running breath-5e4984ae-bbbf-45d1-a15b-09bdf3f32544;"><path d="M5.24-2.24L5.24-2.24L5.24-2.24Q5.87-2.24 6.58-2.57L6.58-2.57L6.58-2.57Q7.28-2.90 7.68-3.23L7.68-3.23L8.07-3.56L9.09-2.33L9.09-2.33Q8.87-1.96 8.40-1.47L8.40-1.47L8.40-1.47Q7.94-0.99 7.47-0.65L7.47-0.65L7.47-0.65Q7.00-0.31 6.21-0.03L6.21-0.03L6.21-0.03Q5.43 0.24 4.60 0.24L4.60 0.24L4.60 0.24Q2.82 0.24 1.69-1.11L1.69-1.11L1.69-1.11Q0.57-2.46 0.57-4.60L0.57-4.60L0.57-4.60Q0.57-7.28 2.13-9.31L2.13-9.31L2.13-9.31Q3.70-11.33 5.79-11.33L5.79-11.33L5.79-11.33Q7.39-11.33 8.28-10.43L8.28-10.43L8.28-10.43Q9.17-9.53 9.17-7.90L9.17-7.90L9.17-7.90Q9.17-6.93 8.84-5.70L8.84-5.70L8.40-5.24L2.90-4.73L2.90-4.73Q3.28-2.24 5.24-2.24zM5.24-9.06L5.24-9.06L5.24-9.06Q4.27-9.06 3.61-8.28L3.61-8.28L3.61-8.28Q2.95-7.50 2.84-6.29L2.84-6.29L6.58-6.75L6.58-6.75Q6.64-7.26 6.64-7.59L6.64-7.59L6.64-7.59Q6.64-9.06 5.24-9.06" fill="#ffffff" stroke="none" stroke-width="none" transform="translate(-118.89998078346252,6.3958730113506315)" style="fill: rgb(255, 255, 255);"></path></g><g class="path" style="transform: scale(0.91); transform-origin: -102.51px -1.19413px; animation: 1.88679s linear -1.08962s infinite normal forwards running breath-5e4984ae-bbbf-45d1-a15b-09bdf3f32544;"><path d="M22.70-1.52L20.00 0.20L16.32-5.50L12.78 0.22L10.41-0.95L14.74-7.55L10.08-13.53L12.80-15.31L16.35-9.81L19.76-15.40L22.07-14.04L18.04-7.77L22.70-1.52" fill="#ffffff" stroke="none" stroke-width="none" transform="translate(-118.89998078346252,6.3958730113506315)" style="fill: rgb(255, 255, 255);"></path></g><g class="path" style="transform: scale(0.91); transform-origin: -91.885px -0.414127px; animation: 1.88679s linear -1.04009s infinite normal forwards running breath-5e4984ae-bbbf-45d1-a15b-09bdf3f32544;"><path d="M23.83-10.65L25.10-10.65L25.10-13.05L28.07-13.62L27.79-10.65L30.45-10.65L30.21-8.84L27.70-8.84L27.59-4.25L27.59-4.25Q27.59-3.21 27.79-2.87L27.79-2.87L27.79-2.87Q27.98-2.53 28.51-2.53L28.51-2.53L28.51-2.53Q29.04-2.53 29.92-2.77L29.92-2.77L30.05-1.21L30.05-1.21Q28.60 0 27.50 0L27.50 0L27.50 0Q26.40 0 25.70-0.80L25.70-0.80L25.70-0.80Q24.99-1.61 24.99-2.90L24.99-2.90L25.12-5.37L25.10-8.84L23.58-8.84L23.83-10.65" fill="#ffffff" stroke="none" stroke-width="none" transform="translate(-118.89998078346252,6.3958730113506315)" style="fill: rgb(255, 255, 255);"></path></g><g class="path" style="transform: scale(0.91); transform-origin: -83.25px 0.850873px; animation: 1.88679s linear -0.990566s infinite normal forwards running breath-5e4984ae-bbbf-45d1-a15b-09bdf3f32544;"><path d="M36.01-2.24L36.01-2.24L36.01-2.24Q36.65-2.24 37.36-2.57L37.36-2.57L37.36-2.57Q38.06-2.90 38.46-3.23L38.46-3.23L38.85-3.56L39.86-2.33L39.86-2.33Q39.64-1.96 39.18-1.47L39.18-1.47L39.18-1.47Q38.72-0.99 38.25-0.65L38.25-0.65L38.25-0.65Q37.77-0.31 36.99-0.03L36.99-0.03L36.99-0.03Q36.21 0.24 35.38 0.24L35.38 0.24L35.38 0.24Q33.59 0.24 32.47-1.11L32.47-1.11L32.47-1.11Q31.35-2.46 31.35-4.60L31.35-4.60L31.35-4.60Q31.35-7.28 32.91-9.31L32.91-9.31L32.91-9.31Q34.47-11.33 36.56-11.33L36.56-11.33L36.56-11.33Q38.17-11.33 39.06-10.43L39.06-10.43L39.06-10.43Q39.95-9.53 39.95-7.90L39.95-7.90L39.95-7.90Q39.95-6.93 39.62-5.70L39.62-5.70L39.18-5.24L33.68-4.73L33.68-4.73Q34.06-2.24 36.01-2.24zM36.01-9.06L36.01-9.06L36.01-9.06Q35.05-9.06 34.39-8.28L34.39-8.28L34.39-8.28Q33.73-7.50 33.62-6.29L33.62-6.29L37.36-6.75L37.36-6.75Q37.42-7.26 37.42-7.59L37.42-7.59L37.42-7.59Q37.42-9.06 36.01-9.06" fill="#ffffff" stroke="none" stroke-width="none" transform="translate(-118.89998078346252,6.3958730113506315)" style="fill: rgb(255, 255, 255);"></path></g><g class="path" style="transform: scale(0.91); transform-origin: -72.615px 0.850873px; animation: 1.88679s linear -0.941038s infinite normal forwards running breath-5e4984ae-bbbf-45d1-a15b-09bdf3f32544;"><path d="M48.25-5.57L48.25-5.57Q48.25-7.08 47.98-7.59L47.98-7.59L47.98-7.59Q47.72-8.10 46.75-8.10L46.75-8.10L46.75-8.10Q45.78-8.10 44.55-7.33L44.55-7.33L44.55-5.72L44.79-0.55L41.84 0L42.11-5.35L42.11-5.35Q42.02-8.29 41.62-10.63L41.62-10.63L44.29-11.20L44.29-11.20Q44.44-9.92 44.51-8.71L44.51-8.71L44.51-8.71Q44.84-9.15 45.25-9.58L45.25-9.58L45.25-9.58Q45.67-10.01 46.57-10.55L46.57-10.55L46.57-10.55Q47.48-11.09 48.48-11.09L48.48-11.09L48.48-11.09Q49.48-11.09 50.16-10.31L50.16-10.31L50.16-10.31Q50.84-9.53 50.84-8.18L50.84-8.18L50.71-5.72L50.95-0.44L47.98 0.11L48.25-5.57" fill="#ffffff" stroke="none" stroke-width="none" transform="translate(-118.89998078346252,6.3958730113506315)" style="fill: rgb(255, 255, 255);"></path></g><g class="path" style="transform: scale(0.91); transform-origin: -61.435px -1.99913px; animation: 1.88679s linear -0.891509s infinite normal forwards running breath-5e4984ae-bbbf-45d1-a15b-09bdf3f32544;"><path d="M59.18-2.16L59.18-2.16L59.18-2.16Q57.46 0 56.21 0L56.21 0L56.21 0Q54.65 0 53.65-1.28L53.65-1.28L53.65-1.28Q52.65-2.55 52.65-4.55L52.65-4.55L52.65-4.55Q52.65-7.30 54.17-9.20L54.17-9.20L54.17-9.20Q55.70-11.09 57.93-11.09L57.93-11.09L59.16-10.91L59.16-11.33L58.89-16.48L61.91-17.03L61.62-5.72L61.62-3.78L61.62-3.78Q61.62-2.46 62.28-0.75L62.28-0.75L59.91 0.24L59.91 0.24Q59.27-1.08 59.18-2.16zM55.11-5.70L55.11-5.70L55.11-5.70Q55.11-4.29 55.63-3.50L55.63-3.50L55.63-3.50Q56.14-2.71 57.12-2.71L57.12-2.71L57.12-2.71Q58.10-2.71 59.16-3.50L59.16-3.50L59.16-8.25L59.16-8.25Q57.84-8.51 57.20-8.51L57.20-8.51L57.20-8.51Q56.21-8.51 55.66-7.81L55.66-7.81L55.66-7.81Q55.11-7.11 55.11-5.70" fill="#ffffff" stroke="none" stroke-width="none" transform="translate(-118.89998078346252,6.3958730113506315)" style="fill: rgb(255, 255, 255);"></path></g><g class="path" style="transform: scale(0.91); transform-origin: -50.89px 0.850873px; animation: 1.88679s linear -0.841981s infinite normal forwards running breath-5e4984ae-bbbf-45d1-a15b-09bdf3f32544;"><path d="M68.38-2.24L68.38-2.24L68.38-2.24Q69.01-2.24 69.72-2.57L69.72-2.57L69.72-2.57Q70.42-2.90 70.82-3.23L70.82-3.23L71.21-3.56L72.23-2.33L72.23-2.33Q72.01-1.96 71.54-1.47L71.54-1.47L71.54-1.47Q71.08-0.99 70.61-0.65L70.61-0.65L70.61-0.65Q70.14-0.31 69.35-0.03L69.35-0.03L69.35-0.03Q68.57 0.24 67.74 0.24L67.74 0.24L67.74 0.24Q65.96 0.24 64.83-1.11L64.83-1.11L64.83-1.11Q63.71-2.46 63.71-4.60L63.71-4.60L63.71-4.60Q63.71-7.28 65.27-9.31L65.27-9.31L65.27-9.31Q66.84-11.33 68.93-11.33L68.93-11.33L68.93-11.33Q70.53-11.33 71.42-10.43L71.42-10.43L71.42-10.43Q72.31-9.53 72.31-7.90L72.31-7.90L72.31-7.90Q72.31-6.93 71.98-5.70L71.98-5.70L71.54-5.24L66.04-4.73L66.04-4.73Q66.42-2.24 68.38-2.24zM68.38-9.06L68.38-9.06L68.38-9.06Q67.41-9.06 66.75-8.28L66.75-8.28L66.75-8.28Q66.09-7.50 65.98-6.29L65.98-6.29L69.72-6.75L69.72-6.75Q69.78-7.26 69.78-7.59L69.78-7.59L69.78-7.59Q69.78-9.06 68.38-9.06" fill="#ffffff" stroke="none" stroke-width="none" transform="translate(-118.89998078346252,6.3958730113506315)" style="fill: rgb(255, 255, 255);"></path></g><g class="path" style="transform: scale(0.91); transform-origin: -40.58px -1.99913px; animation: 1.88679s linear -0.792453s infinite normal forwards running breath-5e4984ae-bbbf-45d1-a15b-09bdf3f32544;"><path d="M80.04-2.16L80.04-2.16L80.04-2.16Q78.32 0 77.07 0L77.07 0L77.07 0Q75.50 0 74.50-1.28L74.50-1.28L74.50-1.28Q73.50-2.55 73.50-4.55L73.50-4.55L73.50-4.55Q73.50-7.30 75.03-9.20L75.03-9.20L75.03-9.20Q76.56-11.09 78.78-11.09L78.78-11.09L80.01-10.91L80.01-11.33L79.75-16.48L82.76-17.03L82.48-5.72L82.48-3.78L82.48-3.78Q82.48-2.46 83.14-0.75L83.14-0.75L80.76 0.24L80.76 0.24Q80.12-1.08 80.04-2.16zM75.97-5.70L75.97-5.70L75.97-5.70Q75.97-4.29 76.48-3.50L76.48-3.50L76.48-3.50Q77-2.71 77.98-2.71L77.98-2.71L77.98-2.71Q78.96-2.71 80.01-3.50L80.01-3.50L80.01-8.25L80.01-8.25Q78.69-8.51 78.06-8.51L78.06-8.51L78.06-8.51Q77.07-8.51 76.52-7.81L76.52-7.81L76.52-7.81Q75.97-7.11 75.97-5.70" fill="#ffffff" stroke="none" stroke-width="none" transform="translate(-118.89998078346252,6.3958730113506315)" style="fill: rgb(255, 255, 255);"></path></g><g class="path" style="transform: scale(0.91); transform-origin: -24.245px -1.18413px; animation: 1.88679s linear -0.742925s infinite normal forwards running breath-5e4984ae-bbbf-45d1-a15b-09bdf3f32544;"><path d="M95.30-15.40L95.30-15.40L95.30-15.40Q97.90-15.40 99.58-13.42L99.58-13.42L99.58-13.42Q101.27-11.44 101.27-8.38L101.27-8.38L101.27-8.38Q101.27-4.51 99.26-2.13L99.26-2.13L99.26-2.13Q97.26 0.24 94.01 0.24L94.01 0.24L94.01 0.24Q91.48 0.24 89.76-1.79L89.76-1.79L89.76-1.79Q88.04-3.83 88.04-6.82L88.04-6.82L88.04-6.82Q88.04-10.56 90.09-12.98L90.09-12.98L90.09-12.98Q92.14-15.40 95.30-15.40zM98.27-7.15L98.27-7.15L98.27-7.15Q98.27-12.72 94.62-12.72L94.62-12.72L94.62-12.72Q92.95-12.72 91.99-11.47L91.99-11.47L91.99-11.47Q91.04-10.23 91.04-7.75L91.04-7.75L91.04-7.75Q91.04-5.28 92.06-3.68L92.06-3.68L92.06-3.68Q93.08-2.09 94.77-2.09L94.77-2.09L94.77-2.09Q96.45-2.09 97.36-3.44L97.36-3.44L97.36-3.44Q98.27-4.80 98.27-7.15" fill="#ffffff" stroke="none" stroke-width="none" transform="translate(-118.89998078346252,6.3958730113506315)" style="fill: rgb(255, 255, 255);"></path></g><g class="path" style="transform: scale(0.91); transform-origin: -11.185px 3.14087px; animation: 1.88679s linear -0.693396s infinite normal forwards running breath-5e4984ae-bbbf-45d1-a15b-09bdf3f32544;"><path d="M109.08-11.11L109.08-11.11L109.08-11.11Q110.48-11.11 111.44-9.88L111.44-9.88L111.44-9.88Q112.40-8.65 112.40-6.56L112.40-6.56L112.40-6.56Q112.40-3.63 110.89-1.81L110.89-1.81L110.89-1.81Q109.38 0 107.14 0L107.14 0L107.14 0Q106.68 0 106.11-0.07L106.11-0.07L106.22 4.14L103.20 4.69L103.49-5.35L103.51-5.35L103.51-5.35Q103.42-8.29 103.03-10.63L103.03-10.63L105.69-11.20L105.69-11.20Q105.82-10.03 105.91-8.89L105.91-8.89L105.91-8.89Q105.95-9.00 106.36-9.49L106.36-9.49L106.36-9.49Q106.77-9.99 107.56-10.55L107.56-10.55L107.56-10.55Q108.35-11.11 109.08-11.11zM108.22-8.25L108.22-8.25L108.22-8.25Q107.05-8.25 105.95-7.61L105.95-7.61L105.95-5.72L106.04-2.57L106.04-2.57Q107.23-2.38 107.84-2.38L107.84-2.38L107.84-2.38Q109.96-2.38 109.96-5.31L109.96-5.31L109.96-5.31Q109.96-8.25 108.22-8.25" fill="#ffffff" stroke="none" stroke-width="none" transform="translate(-118.89998078346252,6.3958730113506315)" style="fill: rgb(255, 255, 255);"></path></g><g class="path" style="transform: scale(0.91); transform-origin: -1.07998px 0.850873px; animation: 1.88679s linear -0.643868s infinite normal forwards running breath-5e4984ae-bbbf-45d1-a15b-09bdf3f32544;"><path d="M118.18-2.24L118.18-2.24L118.18-2.24Q118.82-2.24 119.53-2.57L119.53-2.57L119.53-2.57Q120.23-2.90 120.63-3.23L120.63-3.23L121.02-3.56L122.03-2.33L122.03-2.33Q121.81-1.96 121.35-1.47L121.35-1.47L121.35-1.47Q120.89-0.99 120.42-0.65L120.42-0.65L120.42-0.65Q119.94-0.31 119.16-0.03L119.16-0.03L119.16-0.03Q118.38 0.24 117.55 0.24L117.55 0.24L117.55 0.24Q115.76 0.24 114.64-1.11L114.64-1.11L114.64-1.11Q113.52-2.46 113.52-4.60L113.52-4.60L113.52-4.60Q113.52-7.28 115.08-9.31L115.08-9.31L115.08-9.31Q116.64-11.33 118.73-11.33L118.73-11.33L118.73-11.33Q120.34-11.33 121.23-10.43L121.23-10.43L121.23-10.43Q122.12-9.53 122.12-7.90L122.12-7.90L122.12-7.90Q122.12-6.93 121.79-5.70L121.79-5.70L121.35-5.24L115.85-4.73L115.85-4.73Q116.23-2.24 118.18-2.24zM118.18-9.06L118.18-9.06L118.18-9.06Q117.22-9.06 116.56-8.28L116.56-8.28L116.56-8.28Q115.90-7.50 115.79-6.29L115.79-6.29L119.53-6.75L119.53-6.75Q119.59-7.26 119.59-7.59L119.59-7.59L119.59-7.59Q119.59-9.06 118.18-9.06" fill="#ffffff" stroke="none" stroke-width="none" transform="translate(-118.89998078346252,6.3958730113506315)" style="fill: rgb(255, 255, 255);"></path></g><g class="path" style="transform: scale(0.91); transform-origin: 8.23502px 0.795873px; animation: 1.88679s linear -0.59434s infinite normal forwards running breath-5e4984ae-bbbf-45d1-a15b-09bdf3f32544;"><path d="M123.79-10.63L123.79-10.63L126.46-11.20L126.46-11.20Q126.65-9.50 126.72-7.99L126.72-7.99L126.72-7.99Q128.72-11.09 130.48-11.09L130.48-11.09L130.24-7.66L130.24-7.66Q128.96-7.66 128.23-7.42L128.23-7.42L128.23-7.42Q127.49-7.19 126.72-6.51L126.72-6.51L126.72-5.72L126.96-0.55L124.01 0L124.28-5.35L124.28-5.35Q124.19-8.29 123.79-10.63" fill="#ffffff" stroke="none" stroke-width="none" transform="translate(-118.89998078346252,6.3958730113506315)" style="fill: rgb(255, 255, 255);"></path></g><g class="path" style="transform: scale(0.91); transform-origin: 16.795px 0.765873px; animation: 1.88679s linear -0.544811s infinite normal forwards running breath-5e4984ae-bbbf-45d1-a15b-09bdf3f32544;"><path d="M134.07 0L134.07 0Q132.77 0 131.95-0.82L131.95-0.82L131.95-0.82Q131.12-1.65 131.12-3.05L131.12-3.05L131.12-3.05Q131.12-4.44 132.40-5.47L132.40-5.47L132.40-5.47Q133.67-6.49 135.50-6.49L135.50-6.49L136.99-6.49L136.99-6.86L136.99-6.86Q136.99-7.94 136.55-8.34L136.55-8.34L136.55-8.34Q136.11-8.73 134.90-8.73L134.90-8.73L134.90-8.73Q134.40-8.73 133.71-8.53L133.71-8.53L133.71-8.53Q133.01-8.32 132.15-7.88L132.15-7.88L131.52-9.61L131.52-9.61Q132.46-10.27 133.82-10.80L133.82-10.80L133.82-10.80Q135.17-11.33 136.05-11.33L136.05-11.33L136.05-11.33Q139.50-11.33 139.50-7.99L139.50-7.99L139.50-3.67L139.50-3.67Q139.50-2.44 140.27-0.92L140.27-0.92L137.94 0.07L137.94 0.07Q137.39-0.99 137.13-1.83L137.13-1.83L137.13-1.83Q135.92 0 134.07 0L134.07 0zM134.99-2.24L134.99-2.24L134.99-2.24Q135.87-2.24 136.99-3.15L136.99-3.15L136.99-4.62L136.99-4.62Q135.83-4.88 135.10-4.88L135.10-4.88L135.10-4.88Q133.72-4.88 133.72-3.65L133.72-3.65L133.72-3.65Q133.72-3.01 134.07-2.63L134.07-2.63L134.07-2.63Q134.42-2.24 134.99-2.24" fill="#ffffff" stroke="none" stroke-width="none" transform="translate(-118.89998078346252,6.3958730113506315)" style="fill: rgb(255, 255, 255);"></path></g><g class="path" style="transform: scale(0.91); transform-origin: 26.06px -0.414127px; animation: 1.88679s linear -0.495283s infinite normal forwards running breath-5e4984ae-bbbf-45d1-a15b-09bdf3f32544;"><path d="M141.77-10.65L143.04-10.65L143.04-13.05L146.01-13.62L145.73-10.65L148.39-10.65L148.15-8.84L145.64-8.84L145.53-4.25L145.53-4.25Q145.53-3.21 145.73-2.87L145.73-2.87L145.73-2.87Q145.93-2.53 146.45-2.53L146.45-2.53L146.45-2.53Q146.98-2.53 147.86-2.77L147.86-2.77L147.99-1.21L147.99-1.21Q146.54 0 145.44 0L145.44 0L145.44 0Q144.34 0 143.64-0.80L143.64-0.80L143.64-0.80Q142.93-1.61 142.93-2.90L142.93-2.90L143.07-5.37L143.04-8.84L141.53-8.84L141.77-10.65" fill="#ffffff" stroke="none" stroke-width="none" transform="translate(-118.89998078346252,6.3958730113506315)" style="fill: rgb(255, 255, 255);"></path></g><g class="path" style="transform: scale(0.91); transform-origin: 32.555px 0.795873px; animation: 1.88679s linear -0.445755s infinite normal forwards running breath-5e4984ae-bbbf-45d1-a15b-09bdf3f32544;"><path d="M150.00-10.65L152.94-11.20L152.68-5.72L152.92-0.55L149.97 0L150.24-5.35L150.00-10.65" fill="#ffffff" stroke="none" stroke-width="none" transform="translate(-118.89998078346252,6.3958730113506315)" style="fill: rgb(255, 255, 255);"></path></g><g class="path" style="transform: scale(0.91); transform-origin: 32.655px -8.12413px; animation: 1.88679s linear -0.396226s infinite normal forwards running breath-5e4984ae-bbbf-45d1-a15b-09bdf3f32544;"><path d="M149.84-14.42L149.84-14.42L149.84-14.42Q149.84-15.16 150.41-15.74L150.41-15.74L150.41-15.74Q150.99-16.32 151.73-16.32L151.73-16.32L151.73-16.32Q152.48-16.32 152.88-15.92L152.88-15.92L152.88-15.92Q153.27-15.51 153.27-14.70L153.27-14.70L153.27-14.70Q153.27-13.88 152.71-13.30L152.71-13.30L152.71-13.30Q152.15-12.72 151.42-12.72L151.42-12.72L151.42-12.72Q150.68-12.72 150.26-13.20L150.26-13.20L150.26-13.20Q149.84-13.68 149.84-14.42" fill="#ffffff" stroke="none" stroke-width="none" transform="translate(-118.89998078346252,6.3958730113506315)" style="fill: rgb(255, 255, 255);"></path></g><g class="path" style="transform: scale(0.91); transform-origin: 40.49px 0.850873px; animation: 1.88679s linear -0.346698s infinite normal forwards running breath-5e4984ae-bbbf-45d1-a15b-09bdf3f32544;"><path d="M154.70-4.60L154.70-4.60Q154.70-7.41 156.22-9.37L156.22-9.37L156.22-9.37Q157.74-11.33 159.78-11.33L159.78-11.33L159.78-11.33Q161.81-11.33 162.94-10.01L162.94-10.01L162.94-10.01Q164.08-8.69 164.08-6.51L164.08-6.51L164.08-6.51Q164.08-3.61 162.61-1.68L162.61-1.68L162.61-1.68Q161.15 0.24 158.93 0.24L158.93 0.24L158.93 0.24Q157.10 0.24 155.90-1.13L155.90-1.13L155.90-1.13Q154.70-2.51 154.70-4.60L154.70-4.60zM161.61-5.37L161.61-5.37L161.61-5.37Q161.61-8.56 159.43-8.56L159.43-8.56L159.43-8.56Q157.17-8.56 157.17-5.57L157.17-5.57L157.17-5.57Q157.17-4.00 157.81-3.12L157.81-3.12L157.81-3.12Q158.44-2.24 159.49-2.24L159.49-2.24L159.49-2.24Q160.53-2.24 161.07-3.05L161.07-3.05L161.07-3.05Q161.61-3.85 161.61-5.37" fill="#ffffff" stroke="none" stroke-width="none" transform="translate(-118.89998078346252,6.3958730113506315)" style="fill: rgb(255, 255, 255);"></path></g><g class="path" style="transform: scale(0.91); transform-origin: 51.49px 0.850873px; animation: 1.88679s linear -0.29717s infinite normal forwards running breath-5e4984ae-bbbf-45d1-a15b-09bdf3f32544;"><path d="M172.35-5.57L172.35-5.57Q172.35-7.08 172.08-7.59L172.08-7.59L172.08-7.59Q171.82-8.10 170.85-8.10L170.85-8.10L170.85-8.10Q169.88-8.10 168.65-7.33L168.65-7.33L168.65-5.72L168.89-0.55L165.95 0L166.21-5.35L166.21-5.35Q166.12-8.29 165.73-10.63L165.73-10.63L168.39-11.20L168.39-11.20Q168.54-9.92 168.61-8.71L168.61-8.71L168.61-8.71Q168.94-9.15 169.36-9.58L169.36-9.58L169.36-9.58Q169.77-10.01 170.68-10.55L170.68-10.55L170.68-10.55Q171.58-11.09 172.58-11.09L172.58-11.09L172.58-11.09Q173.58-11.09 174.26-10.31L174.26-10.31L174.26-10.31Q174.94-9.53 174.94-8.18L174.94-8.18L174.81-5.72L175.05-0.44L172.08 0.11L172.35-5.57" fill="#ffffff" stroke="none" stroke-width="none" transform="translate(-118.89998078346252,6.3958730113506315)" style="fill: rgb(255, 255, 255);"></path></g><g class="path" style="transform: scale(0.91); transform-origin: 67.045px -1.19413px; animation: 1.88679s linear -0.247642s infinite normal forwards running breath-5e4984ae-bbbf-45d1-a15b-09bdf3f32544;"><path d="M186.03 0.24L186.03 0.24L186.03 0.24Q183.59 0.24 181.92-1.80L181.92-1.80L181.92-1.80Q180.25-3.85 180.25-6.82L180.25-6.82L180.25-6.82Q180.25-10.45 182.26-12.94L182.26-12.94L182.26-12.94Q184.27-15.42 187.20-15.42L187.20-15.42L187.20-15.42Q188.34-15.42 189.32-15.19L189.32-15.19L189.32-15.19Q190.30-14.96 190.72-14.72L190.72-14.72L191.11-14.48L189.62-11.42L189.62-11.42Q189.11-11.86 188.19-12.24L188.19-12.24L188.19-12.24Q187.26-12.63 186.52-12.63L186.52-12.63L186.52-12.63Q185.00-12.63 184.09-11.37L184.09-11.37L184.09-11.37Q183.17-10.12 183.17-7.80L183.17-7.80L183.17-7.80Q183.17-5.48 184.12-3.99L184.12-3.99L184.12-3.99Q185.06-2.51 186.69-2.51L186.69-2.51L186.69-2.51Q187.75-2.51 188.61-3.17L188.61-3.17L188.61-3.17Q189.46-3.83 189.82-4.93L189.82-4.93L191.64-3.87L191.64-3.87Q190.92-1.94 189.42-0.85L189.42-0.85L189.42-0.85Q187.92 0.24 186.03 0.24" fill="#ffffff" stroke="none" stroke-width="none" transform="translate(-118.89998078346252,6.3958730113506315)" style="fill: rgb(255, 255, 255);"></path></g><g class="path" style="transform: scale(0.91); transform-origin: 77.68px 0.850873px; animation: 1.88679s linear -0.198113s infinite normal forwards running breath-5e4984ae-bbbf-45d1-a15b-09bdf3f32544;"><path d="M196.94-2.24L196.94-2.24L196.94-2.24Q197.58-2.24 198.29-2.57L198.29-2.57L198.29-2.57Q198.99-2.90 199.39-3.23L199.39-3.23L199.78-3.56L200.79-2.33L200.79-2.33Q200.57-1.96 200.11-1.47L200.11-1.47L200.11-1.47Q199.65-0.99 199.18-0.65L199.18-0.65L199.18-0.65Q198.70-0.31 197.92-0.03L197.92-0.03L197.92-0.03Q197.14 0.24 196.31 0.24L196.31 0.24L196.31 0.24Q194.52 0.24 193.40-1.11L193.40-1.11L193.40-1.11Q192.28-2.46 192.28-4.60L192.28-4.60L192.28-4.60Q192.28-7.28 193.84-9.31L193.84-9.31L193.84-9.31Q195.40-11.33 197.49-11.33L197.49-11.33L197.49-11.33Q199.10-11.33 199.99-10.43L199.99-10.43L199.99-10.43Q200.88-9.53 200.88-7.90L200.88-7.90L200.88-7.90Q200.88-6.93 200.55-5.70L200.55-5.70L200.11-5.24L194.61-4.73L194.61-4.73Q194.99-2.24 196.94-2.24zM196.94-9.06L196.94-9.06L196.94-9.06Q195.98-9.06 195.32-8.28L195.32-8.28L195.32-8.28Q194.66-7.50 194.55-6.29L194.55-6.29L198.29-6.75L198.29-6.75Q198.35-7.26 198.35-7.59L198.35-7.59L198.35-7.59Q198.35-9.06 196.94-9.06" fill="#ffffff" stroke="none" stroke-width="none" transform="translate(-118.89998078346252,6.3958730113506315)" style="fill: rgb(255, 255, 255);"></path></g><g class="path" style="transform: scale(0.91); transform-origin: 88.315px 0.850873px; animation: 1.88679s linear -0.148585s infinite normal forwards running breath-5e4984ae-bbbf-45d1-a15b-09bdf3f32544;"><path d="M209.18-5.57L209.18-5.57Q209.18-7.08 208.91-7.59L208.91-7.59L208.91-7.59Q208.65-8.10 207.68-8.10L207.68-8.10L207.68-8.10Q206.71-8.10 205.48-7.33L205.48-7.33L205.48-5.72L205.72-0.55L202.77 0L203.04-5.35L203.04-5.35Q202.95-8.29 202.55-10.63L202.55-10.63L205.22-11.20L205.22-11.20Q205.37-9.92 205.44-8.71L205.44-8.71L205.44-8.71Q205.77-9.15 206.18-9.58L206.18-9.58L206.18-9.58Q206.60-10.01 207.50-10.55L207.50-10.55L207.50-10.55Q208.41-11.09 209.41-11.09L209.41-11.09L209.41-11.09Q210.41-11.09 211.09-10.31L211.09-10.31L211.09-10.31Q211.77-9.53 211.77-8.18L211.77-8.18L211.64-5.72L211.88-0.44L208.91 0.11L209.18-5.57" fill="#ffffff" stroke="none" stroke-width="none" transform="translate(-118.89998078346252,6.3958730113506315)" style="fill: rgb(255, 255, 255);"></path></g><g class="path" style="transform: scale(0.91); transform-origin: 98.175px -0.414127px; animation: 1.88679s linear -0.0990566s infinite normal forwards running breath-5e4984ae-bbbf-45d1-a15b-09bdf3f32544;"><path d="M213.88-10.65L215.16-10.65L215.16-13.05L218.13-13.62L217.84-10.65L220.51-10.65L220.26-8.84L217.76-8.84L217.65-4.25L217.65-4.25Q217.65-3.21 217.84-2.87L217.84-2.87L217.84-2.87Q218.04-2.53 218.57-2.53L218.57-2.53L218.57-2.53Q219.10-2.53 219.98-2.77L219.98-2.77L220.11-1.21L220.11-1.21Q218.66 0 217.56 0L217.56 0L217.56 0Q216.46 0 215.75-0.80L215.75-0.80L215.75-0.80Q215.05-1.61 215.05-2.90L215.05-2.90L215.18-5.37L215.16-8.84L213.64-8.84L213.88-10.65" fill="#ffffff" stroke="none" stroke-width="none" transform="translate(-118.89998078346252,6.3958730113506315)" style="fill: rgb(255, 255, 255);"></path></g><g class="path" style="transform: scale(0.91); transform-origin: 106.81px 0.850873px; animation: 1.88679s linear -0.0495283s infinite normal forwards running breath-5e4984ae-bbbf-45d1-a15b-09bdf3f32544;"><path d="M226.07-2.24L226.07-2.24L226.07-2.24Q226.71-2.24 227.41-2.57L227.41-2.57L227.41-2.57Q228.12-2.90 228.51-3.23L228.51-3.23L228.91-3.56L229.92-2.33L229.92-2.33Q229.70-1.96 229.24-1.47L229.24-1.47L229.24-1.47Q228.78-0.99 228.31-0.65L228.31-0.65L228.31-0.65Q227.83-0.31 227.05-0.03L227.05-0.03L227.05-0.03Q226.27 0.24 225.43 0.24L225.43 0.24L225.43 0.24Q223.65 0.24 222.53-1.11L222.53-1.11L222.53-1.11Q221.41-2.46 221.41-4.60L221.41-4.60L221.41-4.60Q221.41-7.28 222.97-9.31L222.97-9.31L222.97-9.31Q224.53-11.33 226.62-11.33L226.62-11.33L226.62-11.33Q228.23-11.33 229.12-10.43L229.12-10.43L229.12-10.43Q230.01-9.53 230.01-7.90L230.01-7.90L230.01-7.90Q230.01-6.93 229.68-5.70L229.68-5.70L229.24-5.24L223.74-4.73L223.74-4.73Q224.11-2.24 226.07-2.24zM226.07-9.06L226.07-9.06L226.07-9.06Q225.10-9.06 224.44-8.28L224.44-8.28L224.44-8.28Q223.78-7.50 223.67-6.29L223.67-6.29L227.41-6.75L227.41-6.75Q227.48-7.26 227.48-7.59L227.48-7.59L227.48-7.59Q227.48-9.06 226.07-9.06" fill="#ffffff" stroke="none" stroke-width="none" transform="translate(-118.89998078346252,6.3958730113506315)" style="fill: rgb(255, 255, 255);"></path></g><g class="path" style="transform: scale(0.91); transform-origin: 116.125px 0.795873px; animation: 1.88679s linear 0s infinite normal forwards running breath-5e4984ae-bbbf-45d1-a15b-09bdf3f32544;"><path d="M231.68-10.63L231.68-10.63L234.34-11.20L234.34-11.20Q234.54-9.50 234.61-7.99L234.61-7.99L234.61-7.99Q236.61-11.09 238.37-11.09L238.37-11.09L238.13-7.66L238.13-7.66Q236.85-7.66 236.12-7.42L236.12-7.42L236.12-7.42Q235.38-7.19 234.61-6.51L234.61-6.51L234.61-5.72L234.85-0.55L231.90 0L232.17-5.35L232.17-5.35Q232.08-8.29 231.68-10.63" fill="#ffffff" stroke="none" stroke-width="none" transform="translate(-118.89998078346252,6.3958730113506315)" style="fill: rgb(255, 255, 255);"></path></g></g>
</g>
</g>
<style id="breath-5e4984ae-bbbf-45d1-a15b-09bdf3f32544" data-anikit="">@keyframes breath-5e4984ae-bbbf-45d1-a15b-09bdf3f32544
{
  0% {
    animation-timing-function: cubic-bezier(0.9647,0.2413,-0.0705,0.7911);
    transform: scale(0.9099999999999999);
  }
  51% {
    animation-timing-function: cubic-bezier(0.9226,0.2631,-0.0308,0.7628);
    transform: scale(1.02994);
  }
  100% {
    transform: scale(0.9099999999999999);
  }
}</style></svg>