<?xml version="1.0" standalone="no"?>
<!DOCTYPE svg PUBLIC "-//W3C//DTD SVG 20010904//EN"
 "http://www.w3.org/TR/2001/REC-SVG-20010904/DTD/svg10.dtd">
<svg version="1.0" xmlns="http://www.w3.org/2000/svg"
 width="1045.000000pt" height="1257.000000pt" viewBox="0 0 1045.000000 1257.000000"
 preserveAspectRatio="xMidYMid meet">
<metadata>
Created by potrace 1.16, written by Peter Selinger 2001-2019
</metadata>
<g transform="translate(0.000000,1257.000000) scale(0.100000,-0.100000)"
fill="#CCCCCC" stroke="none">
<path d="M5090 12394 c-634 -587 -1390 -1001 -2280 -1248 -521 -145 -1027
-221 -1641 -247 -352 -15 -835 6 -1116 47 l-43 6 0 -1668 c0 -1832 3 -1956 61
-2479 194 -1770 856 -3308 1970 -4580 238 -272 640 -660 949 -915 581 -479
1328 -936 1970 -1203 261 -109 248 -106 328 -78 119 43 342 140 537 235 655
319 1296 749 1868 1254 179 158 557 536 706 707 853 976 1434 2089 1751 3354
147 587 235 1187 270 1846 6 113 10 863 10 1859 l0 1668 -32 -6 c-403 -73
-1100 -67 -1658 15 -1214 176 -2386 679 -3382 1449 -71 55 -132 100 -136 100
-4 -1 -63 -53 -132 -116z m3022 -4055 c156 -139 284 -253 286 -254 5 -4 -3820
-3890 -3829 -3890 -16 0 -2199 2320 -2195 2332 4 10 580 707 622 752 10 11
140 -77 785 -534 424 -301 777 -549 783 -551 6 -2 740 536 1631 1196 891 660
1623 1199 1627 1200 4 0 134 -113 290 -251z"/>
</g>
</svg>
