<svg xmlns="http://www.w3.org/2000/svg" id="SvgjsSvg765978" width="4096" height="1846.1187661511944" version="1.1" xmlns:xlink="http://www.w3.org/1999/xlink" xmlns:svgjs="http://svgjs.com/svgjs"><defs id="SvgjsDefs765979"></defs><g id="SvgjsG765980" transform="translate(328, 328) scale(34.4)" opacity="1"><defs id="SvgjsDefs190036"></defs><g id="SvgjsG190037" transform="scale(0.21645021645021645)" opacity="1"><g id="SvgjsG190038" class="Pj3YbHixx" transform="translate(151.0052520037411, 0) scale(1)" light-content="false" fill="#000000"><path d="				M 79.41785900608312, 79.91785900608312				m 0, -79.91785900608312
				a 79.91785900608312, 79.91785900608312, 0, 1, 0, 1, 0
				Z
			"></path></g><g id="SvgjsG190039" class="1wUhQj8cdd" transform="translate(159.76813950226494, 9.902168630380872) scale(1.4314054816738901)" light-content="true" non-strokable="false" fill="#e50914"><path d="M53.333 10v6.692c16.85 1.68 30 15.951 30 33.308 0 17.354-13.15 31.624-30 33.304V90C73.864 88.298 90 71.052 90 50c0-21.055-16.136-38.294-36.667-40zm-6.666 73.304c-16.843-1.68-30-15.95-30-33.304 0-17.356 13.157-31.628 30-33.308V10C26.14 11.706 10 28.945 10 50c0 21.052 16.14 38.298 36.667 40v-6.696z"></path><path d="M30.3 46.667C31.888 37.21 40.091 30 50 30s18.112 7.21 19.7 16.667h6.735C74.795 33.516 63.601 23.333 50 23.333c-13.594 0-24.792 10.183-26.436 23.334H30.3zm39.4 6.666C68.112 62.786 59.909 70 50 70s-18.112-7.214-19.7-16.667h-6.735C25.208 66.484 36.406 76.667 50 76.667c13.601 0 24.795-10.183 26.436-23.334H69.7z"></path><path d="M50 36.667c-7.363 0-13.333 5.97-13.333 13.333S42.637 63.333 50 63.333c7.366 0 13.333-5.97 13.333-13.333S57.366 36.667 50 36.667zm0 20a6.667 6.667 0 1 1 0-13.334 6.667 6.667 0 0 1 0 13.334z"></path></g><g id="SvgjsG190040" class="text" transform="translate(80.93, 150.12534461606714) scale(1)" light-content="false" fill="#e50914"><path d="M-28.16 -73.63L-80.93 0L-24.41 0L0 -34.21L24.41 0L80.93 0L28.16 -73.63L79.89 -145.81L23.36 -145.81L0 -113.06L-23.36 -145.81L-79.68 -145.81Z"></path></g><g id="SvgjsG190041" class="text" transform="translate(386.7009340763223, 153.25243892973504) scale(1)" light-content="false" fill="#e50914"><path d="M-31.91 -6.36C-19.54 0.1 -5.63 3.34 9.8 3.34C23.99 3.34 36.64 0.83 47.77 -4.17C58.89 -9.18 68.07 -16.41 75.3 -25.87L44.22 -53.61C35.18 -42.21 24.54 -36.5 12.31 -36.5C2.02 -36.5 -6.26 -39.81 -12.52 -46.41C-18.77 -53.02 -21.9 -61.88 -21.9 -73.01C-21.9 -84.13 -18.77 -93 -12.52 -99.6C-6.26 -106.21 2.02 -109.51 12.31 -109.51C24.54 -109.51 35.18 -103.81 44.22 -92.41L75.3 -120.15C68.07 -129.61 58.89 -136.84 47.77 -141.84C36.64 -146.85 23.99 -149.35 9.8 -149.35C-5.63 -149.35 -19.54 -146.12 -31.91 -139.65C-44.29 -133.19 -53.99 -124.15 -61.01 -112.54C-68.04 -100.92 -71.55 -87.75 -71.55 -73.01C-71.55 -58.27 -68.04 -45.09 -61.01 -33.48C-53.99 -21.87 -44.29 -12.83 -31.91 -6.36Z"></path></g></g></g></svg>