<svg xmlns="http://www.w3.org/2000/svg" id="SvgjsSvg285808" width="4096" height="1693.0054325170097" version="1.1" xmlns:xlink="http://www.w3.org/1999/xlink" xmlns:svgjs="http://svgjs.com/svgjs"><defs id="SvgjsDefs285809"></defs><g id="SvgjsG285810" transform="translate(328, 328) scale(34.4)" opacity="1"><defs id="SvgjsDefs81453"></defs><g id="SvgjsG81454" transform="scale(0.2164502164502165)" opacity="1"><g id="SvgjsG81455" class="text" transform="translate(51.5, 108.72884662893537) scale(1)" light-content="false" fill="#000000"><path d="M11.26 0L51.5 0L19.5 -43.65L50.72 -84.97L13.9 -84.97L1.17 -66.95L-10.95 -84.97L-50.56 -84.97L-19.34 -42.1L-51.5 0L-13.44 0L-0.39 -18.18Z"></path></g><g id="SvgjsG81456" class="9B65maY6iK" transform="translate(156.4037750669126, 0) scale(1)" light-content="false" fill="#000000"><path d="M54.25112038490572, 54.75112038490572				m 0, -54.75112038490572
				a 54.75112038490572, 54.75112038490572, 0, 1, 0, 1, 0
				Z
			"></path></g><g id="SvgjsG81457" class="text" transform="translate(128.12989545739947, 108.74) scale(1)" light-content="false" fill="#e50914"><path d="M-18.33 -108.74L-18.33 0L18.33 0L18.33 -108.74Z"></path></g><g id="SvgjsG81458" class="text" transform="translate(420.5277786673046, 109.49439764259495) scale(1)" light-content="false" fill="#000000"><path d="M41.48 -25.63L4.66 -25.63L39.77 -64.78L39.77 -84.97L-38.37 -84.97L-38.37 -59.34L-4.5 -59.34L-39.61 -20.19L-39.61 0L41.48 0Z"></path></g><g id="SvgjsG81459" class="text" transform="translate(319.54330328130135, 109.50555101365954) scale(1)" light-content="false" fill="#e50914"><path d="M-18.33 -80.31L-18.33 0L18.33 0L18.33 -80.31L50.18 -80.31L50.18 -108.74L-50.18 -108.74L-50.18 -80.31Z"></path></g><g id="SvgjsG81460" class="31cab93X71" transform="translate(160.28100228644743, 3.7804569727194597) scale(1.0271033702143764)" light-content="true" non-strokable="false" fill="#e50914"><path d="M53.333 10v6.692c16.85 1.68 30 15.951 30 33.308 0 17.354-13.15 31.624-30 33.304V90C73.864 88.298 90 71.052 90 50c0-21.055-16.136-38.294-36.667-40zm-6.666 73.304c-16.843-1.68-30-15.95-30-33.304 0-17.356 13.157-31.628 30-33.308V10C26.14 11.706 10 28.945 10 50c0 21.052 16.14 38.298 36.667 40v-6.696z"></path>








<path d="M30.3 46.667C31.888 37.21 40.091 30 50 30s18.112 7.21 19.7 16.667h6.735C74.795 33.516 63.601 23.333 50 23.333c-13.594 0-24.792 10.183-26.436 23.334H30.3zm39.4 6.666C68.112 62.786 59.909 70 50 70s-18.112-7.214-19.7-16.667h-6.735C25.208 66.484 36.406 76.667 50 76.667c13.601 0 24.795-10.183 26.436-23.334H69.7z"></path><path d="M50 36.667c-7.363 0-13.333 5.97-13.333 13.333S42.637 63.333 50 63.333c7.366 0 13.333-5.97 13.333-13.333S57.366 36.667 50 36.667zm0 20a6.667 6.667 0 1 1 0-13.334 6.667 6.667 0 0 1 0 13.334z"></path></g><g id="SvgjsG81461" class="text" transform="translate(315.7499902343749, 138.68224076981144) scale(1)" light-content="false" fill="#000000"><path d="M-129.03 -13.52L-129.03 -7.03C-130.03 -6.62 -131.08 -6.41 -132.18 -6.41C-134.03 -6.41 -135.52 -7 -136.63 -8.17C-137.74 -9.34 -138.29 -10.89 -138.29 -12.82C-138.29 -14.8 -137.73 -16.36 -136.61 -17.51C-135.49 -18.66 -133.97 -19.23 -132.07 -19.23C-129.84 -19.23 -127.93 -18.29 -126.32 -16.41L-120.78 -21.28C-122.1 -22.9 -123.76 -24.12 -125.75 -24.97C-127.74 -25.81 -129.99 -26.23 -132.51 -26.23C-135.29 -26.23 -137.79 -25.66 -140 -24.53C-142.21 -23.39 -143.93 -21.8 -145.16 -19.76C-146.4 -17.72 -147.01 -15.41 -147.01 -12.82C-147.01 -10.23 -146.4 -7.92 -145.16 -5.88C-143.93 -3.84 -142.23 -2.25 -140.05 -1.12C-137.88 0.02 -135.43 0.59 -132.69 0.59C-130.76 0.59 -128.79 0.31 -126.79 -0.26C-124.79 -0.82 -123.03 -1.62 -121.52 -2.67L-121.52 -13.52Z M-96.86 -8.1C-96.79 -9.27 -96.75 -9.92 -96.75 -10.04C-96.75 -12.21 -97.25 -14.08 -98.24 -15.64C-99.22 -17.21 -100.56 -18.39 -102.23 -19.2C-103.9 -20 -105.75 -20.41 -107.78 -20.41C-109.93 -20.41 -111.86 -19.97 -113.58 -19.09C-115.31 -18.21 -116.66 -16.98 -117.65 -15.4C-118.64 -13.83 -119.13 -12.04 -119.13 -10.04C-119.13 -8.06 -118.63 -6.28 -117.63 -4.69C-116.63 -3.1 -115.22 -1.86 -113.38 -0.97C-111.55 -0.08 -109.43 0.37 -107.01 0.37C-103.13 0.37 -100.21 -0.71 -98.25 -2.86L-102.58 -7.22C-103.28 -6.68 -103.94 -6.3 -104.54 -6.08C-105.13 -5.86 -105.87 -5.75 -106.75 -5.75C-107.78 -5.75 -108.63 -5.95 -109.32 -6.36C-110 -6.76 -110.49 -7.34 -110.78 -8.1ZM-109.83 -14.07C-109.27 -14.53 -108.56 -14.76 -107.71 -14.76C-106.85 -14.76 -106.14 -14.53 -105.58 -14.05C-105.02 -13.57 -104.65 -12.92 -104.48 -12.09L-110.93 -12.09C-110.76 -12.94 -110.39 -13.6 -109.83 -14.07Z M-79.39 -0.7L-81.36 -6.45C-81.9 -6.08 -82.53 -5.9 -83.23 -5.9C-83.75 -5.9 -84.16 -6.07 -84.48 -6.41C-84.8 -6.75 -84.96 -7.23 -84.96 -7.84L-84.96 -12.9L-80.85 -12.9L-80.85 -18.94L-84.96 -18.94L-84.96 -24.55L-93.23 -24.55L-93.23 -18.94L-95.98 -18.94L-95.98 -12.9L-93.23 -12.9L-93.23 -7.77C-93.23 -5.06 -92.48 -3.02 -90.96 -1.67C-89.45 -0.31 -87.29 0.37 -84.48 0.37C-82.33 0.37 -80.63 0.01 -79.39 -0.7Z M-60.12 -1.12C-57.94 0.02 -55.5 0.59 -52.79 0.59C-50.3 0.59 -48.08 0.15 -46.12 -0.73C-44.17 -1.61 -42.56 -2.88 -41.29 -4.54L-46.75 -9.42C-48.33 -7.41 -50.2 -6.41 -52.35 -6.41C-54.16 -6.41 -55.61 -6.99 -56.71 -8.15C-57.81 -9.31 -58.36 -10.87 -58.36 -12.82C-58.36 -14.78 -57.81 -16.33 -56.71 -17.49C-55.61 -18.65 -54.16 -19.23 -52.35 -19.23C-50.2 -19.23 -48.33 -18.23 -46.75 -16.23L-41.29 -21.1C-42.56 -22.76 -44.17 -24.03 -46.12 -24.91C-48.08 -25.79 -50.3 -26.23 -52.79 -26.23C-55.5 -26.23 -57.94 -25.66 -60.12 -24.53C-62.29 -23.39 -63.99 -21.8 -65.23 -19.76C-66.46 -17.72 -67.08 -15.41 -67.08 -12.82C-67.08 -10.23 -66.46 -7.92 -65.23 -5.88C-63.99 -3.84 -62.29 -2.25 -60.12 -1.12Z M-35 -0.97C-33.23 -0.08 -31.24 0.37 -29.01 0.37C-26.77 0.37 -24.76 -0.08 -22.99 -0.97C-21.22 -1.86 -19.84 -3.1 -18.85 -4.67C-17.86 -6.25 -17.36 -8.04 -17.36 -10.04C-17.36 -12.04 -17.86 -13.83 -18.85 -15.4C-19.84 -16.98 -21.22 -18.21 -22.99 -19.09C-24.76 -19.97 -26.77 -20.41 -29.01 -20.41C-31.24 -20.41 -33.23 -19.97 -35 -19.09C-36.77 -18.21 -38.16 -16.98 -39.16 -15.4C-40.16 -13.83 -40.66 -12.04 -40.66 -10.04C-40.66 -8.04 -40.16 -6.25 -39.16 -4.67C-38.16 -3.1 -36.77 -1.86 -35 -0.97ZM-26.67 -7.13C-27.28 -6.43 -28.06 -6.08 -29.01 -6.08C-29.97 -6.08 -30.75 -6.43 -31.36 -7.13C-31.97 -7.82 -32.27 -8.79 -32.27 -10.04C-32.27 -11.28 -31.97 -12.25 -31.36 -12.93C-30.75 -13.62 -29.97 -13.96 -29.01 -13.96C-28.06 -13.96 -27.28 -13.62 -26.67 -12.93C-26.06 -12.25 -25.75 -11.28 -25.75 -10.04C-25.75 -8.79 -26.06 -7.82 -26.67 -7.13Z M5.11 -18.17C3.61 -19.66 1.62 -20.41 -0.84 -20.41C-2.04 -20.41 -3.15 -20.21 -4.18 -19.82C-5.2 -19.43 -6.11 -18.84 -6.89 -18.06L-6.89 -20.04L-14.76 -20.04L-14.76 0L-6.48 0L-6.48 -9.42C-6.48 -10.81 -6.2 -11.83 -5.62 -12.47C-5.05 -13.12 -4.3 -13.44 -3.37 -13.44C-1.73 -13.44 -0.92 -12.3 -0.92 -10L-0.92 0L7.36 0L7.36 -11.43C7.36 -14.43 6.61 -16.68 5.11 -18.17Z M30.83 -18.17C29.33 -19.66 27.34 -20.41 24.87 -20.41C23.68 -20.41 22.57 -20.21 21.54 -19.82C20.52 -19.43 19.61 -18.84 18.83 -18.06L18.83 -20.04L10.95 -20.04L10.95 0L19.23 0L19.23 -9.42C19.23 -10.81 19.52 -11.83 20.09 -12.47C20.67 -13.12 21.42 -13.44 22.35 -13.44C23.98 -13.44 24.8 -12.3 24.8 -10L24.8 0L33.08 0L33.08 -11.43C33.08 -14.43 32.33 -16.68 30.83 -18.17Z M58.25 -8.1C58.32 -9.27 58.36 -9.92 58.36 -10.04C58.36 -12.21 57.86 -14.08 56.87 -15.64C55.89 -17.21 54.55 -18.39 52.88 -19.2C51.21 -20 49.36 -20.41 47.33 -20.41C45.18 -20.41 43.25 -19.97 41.53 -19.09C39.8 -18.21 38.45 -16.98 37.46 -15.4C36.47 -13.83 35.97 -12.04 35.97 -10.04C35.97 -8.06 36.48 -6.28 37.48 -4.69C38.48 -3.1 39.89 -1.86 41.73 -0.97C43.56 -0.08 45.68 0.37 48.1 0.37C51.98 0.37 54.9 -0.71 56.86 -2.86L52.53 -7.22C51.83 -6.68 51.17 -6.3 50.57 -6.08C49.98 -5.86 49.24 -5.75 48.36 -5.75C47.33 -5.75 46.48 -5.95 45.79 -6.36C45.11 -6.76 44.62 -7.34 44.33 -8.1ZM45.28 -14.07C45.84 -14.53 46.55 -14.76 47.4 -14.76C48.26 -14.76 48.97 -14.53 49.53 -14.05C50.09 -13.57 50.46 -12.92 50.63 -12.09L44.18 -12.09C44.35 -12.94 44.72 -13.6 45.28 -14.07Z M65.63 -0.95C67.43 -0.07 69.46 0.37 71.73 0.37C74.17 0.37 76.26 -0.16 77.99 -1.21C79.73 -2.26 80.93 -3.71 81.58 -5.57L75.17 -8.72C74.39 -6.96 73.23 -6.08 71.69 -6.08C70.72 -6.08 69.9 -6.42 69.26 -7.11C68.61 -7.79 68.29 -8.77 68.29 -10.04C68.29 -11.28 68.61 -12.25 69.26 -12.93C69.9 -13.62 70.72 -13.96 71.69 -13.96C73.23 -13.96 74.39 -13.08 75.17 -11.32L81.58 -14.47C80.93 -16.33 79.73 -17.78 77.99 -18.83C76.26 -19.88 74.17 -20.41 71.73 -20.41C69.46 -20.41 67.43 -19.97 65.63 -19.09C63.84 -18.21 62.43 -16.98 61.42 -15.4C60.4 -13.83 59.9 -12.04 59.9 -10.04C59.9 -8.04 60.4 -6.24 61.42 -4.65C62.43 -3.07 63.84 -1.83 65.63 -0.95Z M98.62 -0.7L96.64 -6.45C96.1 -6.08 95.48 -5.9 94.77 -5.9C94.26 -5.9 93.85 -6.07 93.53 -6.41C93.21 -6.75 93.05 -7.23 93.05 -7.84L93.05 -12.9L97.15 -12.9L97.15 -18.94L93.05 -18.94L93.05 -24.55L84.77 -24.55L84.77 -18.94L82.02 -18.94L82.02 -12.9L84.77 -12.9L84.77 -7.77C84.77 -5.06 85.53 -3.02 87.04 -1.67C88.56 -0.31 90.72 0.37 93.53 0.37C95.68 0.37 97.37 0.01 98.62 -0.7Z M121.37 -8.1C121.44 -9.27 121.48 -9.92 121.48 -10.04C121.48 -12.21 120.98 -14.08 120 -15.64C119.01 -17.21 117.68 -18.39 116 -19.2C114.33 -20 112.48 -20.41 110.45 -20.41C108.3 -20.41 106.37 -19.97 104.65 -19.09C102.92 -18.21 101.57 -16.98 100.58 -15.4C99.59 -13.83 99.1 -12.04 99.1 -10.04C99.1 -8.06 99.6 -6.28 100.6 -4.69C101.6 -3.1 103.02 -1.86 104.85 -0.97C106.68 -0.08 108.8 0.37 111.22 0.37C115.11 0.37 118.02 -0.71 119.98 -2.86L115.65 -7.22C114.95 -6.68 114.29 -6.3 113.69 -6.08C113.1 -5.86 112.36 -5.75 111.48 -5.75C110.45 -5.75 109.6 -5.95 108.91 -6.36C108.23 -6.76 107.74 -7.34 107.45 -8.1ZM108.4 -14.07C108.96 -14.53 109.67 -14.76 110.53 -14.76C111.38 -14.76 112.09 -14.53 112.65 -14.05C113.21 -13.57 113.58 -12.92 113.75 -12.09L107.3 -12.09C107.47 -12.94 107.84 -13.6 108.4 -14.07Z M146.24 -27.18L137.97 -27.18L137.97 -18.68C136.79 -19.83 135.1 -20.41 132.87 -20.41C131.11 -20.41 129.5 -19.98 128.02 -19.14C126.54 -18.3 125.37 -17.09 124.5 -15.51C123.63 -13.94 123.2 -12.11 123.2 -10.04C123.2 -7.96 123.63 -6.13 124.5 -4.54C125.37 -2.96 126.54 -1.74 128.02 -0.9C129.5 -0.05 131.11 0.37 132.87 0.37C135.34 0.37 137.17 -0.31 138.37 -1.65L138.37 0L146.24 0ZM137.2 -7.13C136.59 -6.43 135.8 -6.08 134.85 -6.08C133.9 -6.08 133.12 -6.43 132.51 -7.13C131.9 -7.82 131.59 -8.79 131.59 -10.04C131.59 -11.28 131.9 -12.25 132.51 -12.93C133.12 -13.62 133.9 -13.96 134.85 -13.96C135.8 -13.96 136.59 -13.62 137.2 -12.93C137.81 -12.25 138.11 -11.28 138.11 -10.04C138.11 -8.79 137.81 -7.82 137.2 -7.13Z"></path></g></g></g></svg>