<?xml version="1.0" standalone="no"?>
<!DOCTYPE svg PUBLIC "-//W3C//DTD SVG 20010904//EN"
 "http://www.w3.org/TR/2001/REC-SVG-20010904/DTD/svg10.dtd">
<svg version="1.0" xmlns="http://www.w3.org/2000/svg"
 width="1080.000000pt" height="1040.000000pt" viewBox="0 0 1080.000000 1040.000000"
 preserveAspectRatio="xMidYMid meet">
<metadata>
Created by potrace 1.16, written by Peter Selinger 2001-2019
</metadata>
<g transform="translate(0.000000,1040.000000) scale(0.100000,-0.100000)"
fill="#CCCCCC" stroke="none">
<path d="M396 10374 c-174 -42 -319 -188 -361 -365 -13 -55 -15 -220 -15
-1180 0 -714 4 -1136 10 -1170 34 -180 180 -338 355 -384 53 -13 588 -15 5015
-15 4427 0 4962 2 5015 15 175 46 321 204 355 384 6 34 10 456 10 1170 0 1226
2 1184 -61 1301 -39 74 -125 160 -199 199 -123 66 314 61 -5125 60 -4231 -1
-4948 -3 -4999 -15z m6874 -1549 l0 -475 -3070 0 -3070 0 0 475 0 475 3070 0
3070 0 0 -475z m2342 415 c121 -37 233 -139 279 -257 19 -47 23 -77 24 -163 0
-98 -2 -110 -32 -173 -56 -118 -169 -214 -292 -247 -24 -6 -76 -11 -116 -11
-164 1 -305 93 -383 250 -36 73 -37 78 -37 185 0 104 2 115 32 178 96 202 316
303 525 238z"/>
<path d="M358 6707 c-163 -56 -278 -182 -323 -353 -23 -87 -22 -2277 0 -2373
44 -184 204 -336 389 -370 42 -8 1489 -11 4980 -11 5343 0 4991 -3 5104 54 73
37 173 134 210 204 64 120 62 74 62 1312 0 1225 2 1180 -56 1296 -57 113 -168
206 -292 244 -64 20 -104 20 -5036 20 l-4971 -1 -67 -22z m6912 -1537 l0 -470
-3070 0 -3070 0 0 470 0 470 3070 0 3070 0 0 -470z m2280 429 c142 -23 269
-121 333 -256 30 -63 32 -75 32 -173 -1 -121 -19 -182 -83 -265 -201 -264
-603 -219 -746 85 -39 83 -48 205 -21 296 53 182 203 300 410 323 6 0 39 -4
75 -10z"/>
<path d="M396 3139 c-72 -17 -169 -73 -228 -130 -65 -64 -121 -169 -138 -258
-6 -34 -10 -456 -10 -1170 0 -1226 -2 -1184 61 -1301 39 -74 125 -160 199
-199 123 -66 -313 -61 5120 -61 5433 0 4997 -5 5120 61 74 39 160 125 199 199
63 117 61 75 61 1301 0 714 -4 1136 -10 1170 -34 181 -180 338 -356 383 -56
15 -529 16 -5020 15 -2973 -1 -4975 -5 -4998 -10z m6874 -1554 l0 -475 -3070
0 -3070 0 0 475 0 475 3070 0 3070 0 0 -475z m2404 391 c90 -44 165 -121 209
-213 30 -63 32 -75 32 -173 -1 -125 -22 -191 -89 -273 -209 -256 -598 -208
-739 91 -30 63 -32 74 -32 177 0 106 1 113 36 185 109 226 363 315 583 206z"/>
</g>
</svg>
