<?xml version="1.0" standalone="no"?>
<!DOCTYPE svg PUBLIC "-//W3C//DTD SVG 20010904//EN"
 "http://www.w3.org/TR/2001/REC-SVG-20010904/DTD/svg10.dtd">
<svg version="1.0" xmlns="http://www.w3.org/2000/svg"
 width="1038.000000pt" height="1292.000000pt" viewBox="0 0 1038.000000 1292.000000"
 preserveAspectRatio="xMidYMid meet">
<metadata>
Created by potrace 1.16, written by Peter Selinger 2001-2019
</metadata>
<g transform="translate(0.000000,1292.000000) scale(0.100000,-0.100000)"
fill="#CCCCCC" stroke="none">
<path d="M1015 12900 c-230 -53 -431 -161 -605 -326 -162 -155 -278 -334 -344
-533 -73 -219 -67 281 -63 -5631 2 -4907 4 -5330 19 -5390 68 -269 168 -456
337 -633 174 -182 384 -302 635 -363 l101 -24 4068 0 c3644 0 4076 2 4143 16
440 90 825 434 968 863 71 215 66 -131 66 4218 l0 3923 -1512 2 -1513 3 -85
24 c-437 122 -735 460 -790 895 -6 51 -10 614 -10 1528 l0 1448 -2667 -1
c-2546 -1 -2672 -2 -2748 -19z m7382 -5352 c-396 -607 -1386 -2120 -2199
-3363 -813 -1243 -1482 -2261 -1486 -2262 -6 -3 -3120 2482 -3159 2520 -10 9
17 62 119 235 125 213 132 224 157 218 14 -3 591 -228 1281 -500 l1255 -494
2375 2374 c1306 1306 2376 2374 2377 2374 1 0 -323 -496 -720 -1102z"/>
<path d="M7230 11465 c0 -1284 2 -1460 15 -1492 26 -61 65 -104 119 -129 l51
-24 1463 0 1462 0 0 153 0 152 -1398 1398 -1397 1397 -158 0 -157 0 0 -1455z"/>
</g>
</svg>
