<?xml version="1.0" encoding="utf-8"?>
<svg viewBox="0 0 500 500" xmlns="http://www.w3.org/2000/svg">
  <path d="M 487.433 423.031 L 483.237 419.537 L 483.243 419.543 C 477.647 414.948 468.665 414.948 463.073 419.543 L 458.071 423.707 L 401.268 376.289 C 405.689 372.544 408.175 367.504 408.175 362.249 C 408.175 357 405.689 351.96 401.268 348.214 L 394.977 342.438 C 391.8 339.855 387.821 338.056 383.489 337.248 C 379.158 336.446 374.64 336.657 370.449 337.869 C 376.588 332.068 381.502 325.436 384.971 318.256 C 399.602 278.199 410.391 237.232 417.239 195.75 L 424.983 189.704 C 455.81 163.113 512.613 33.489 481.141 6.628 L 364.794 121.076 L 363.99 121.076 C 311.545 121.076 248.775 86.283 248.775 86.283 C 248.775 86.283 186.004 121.076 133.558 121.076 L 132.753 121.076 L 16.406 6.628 C -15.059 33.495 41.737 163.116 73.208 189.31 L 80.952 195.356 C 87.806 236.834 98.597 277.8 113.228 317.861 C 116.696 325.036 121.603 331.668 127.749 337.469 C 123.558 336.258 119.04 336.045 114.703 336.852 C 110.372 337.655 106.398 339.454 103.224 342.039 L 96.284 347.814 C 91.856 351.558 89.378 356.599 89.378 361.849 C 89.378 367.104 91.856 372.146 96.284 375.888 L 38.995 423.843 L 33.994 419.681 C 28.404 415.086 19.422 415.086 13.824 419.681 L 10.112 423.035 C 4.662 427.769 4.662 435.229 10.112 439.963 L 66.269 486.572 C 68.935 488.812 72.57 490.073 76.357 490.073 C 80.141 490.073 83.775 488.812 86.439 486.572 L 90.638 483.079 C 93.327 480.86 94.841 477.84 94.841 474.686 C 94.841 471.532 93.327 468.512 90.638 466.289 L 85.794 462.258 L 142.597 414.84 L 142.597 414.846 C 147.051 418.595 153.125 420.702 159.457 420.702 C 165.795 420.702 171.865 418.595 176.323 414.846 L 184.226 409.607 C 188.73 405.896 191.267 400.843 191.267 395.567 C 191.267 390.297 188.73 385.239 184.226 381.532 C 194.723 388.403 206.088 394.302 218.112 399.125 L 249.578 410.809 L 281.048 398.86 C 293.078 394.035 304.439 388.132 314.934 381.261 C 310.112 384.798 307.216 389.806 306.917 395.146 C 306.61 400.491 308.923 405.709 313.319 409.607 L 320.257 415.382 L 320.264 415.382 C 324.716 419.132 330.785 421.237 337.125 421.237 C 343.461 421.237 349.531 419.132 353.985 415.382 L 410.788 462.8 L 405.945 466.83 L 405.945 466.826 C 403.254 469.049 401.741 472.069 401.741 475.223 C 401.741 478.376 403.254 481.397 405.945 483.621 L 410.141 487.114 L 410.141 487.109 C 412.806 489.348 416.441 490.609 420.23 490.609 C 424.019 490.609 427.646 489.348 430.31 487.109 L 486.468 440.502 C 489.42 438.309 491.184 435.226 491.369 431.938 C 491.548 428.651 490.131 425.445 487.433 423.035 L 487.433 423.031 Z" style=""/>
</svg>