<?xml version="1.0" standalone="no"?>
<!DOCTYPE svg PUBLIC "-//W3C//DTD SVG 20010904//EN"
 "http://www.w3.org/TR/2001/REC-SVG-20010904/DTD/svg10.dtd">
<svg version="1.0" xmlns="http://www.w3.org/2000/svg"
 width="1076.000000pt" height="1076.000000pt" viewBox="0 0 1076.000000 1076.000000"
 preserveAspectRatio="xMidYMid meet">
<metadata>
Created by potrace 1.16, written by Peter Selinger 2001-2019
</metadata>
<g transform="translate(0.000000,1076.000000) scale(0.100000,-0.100000)"
fill="#CCCCCC" stroke="none">
<path d="M5115 10753 c-522 -31 -962 -113 -1425 -264 -739 -243 -1426 -652
-1996 -1190 -1365 -1286 -1957 -3159 -1583 -5009 281 -1389 1125 -2627 2326
-3413 1209 -792 2684 -1061 4108 -751 499 109 1063 327 1512 585 449 258 871
592 1241 982 678 716 1151 1626 1351 2599 76 369 106 672 106 1088 0 424 -29
718 -110 1107 -109 531 -324 1097 -596 1570 -849 1480 -2360 2475 -4049 2667
-268 31 -652 43 -885 29z m329 -445 c23 -7 59 -30 81 -53 23 -22 46 -58 53
-81 9 -31 12 -188 12 -610 0 -639 2 -615 -75 -682 -47 -42 -74 -52 -135 -52
-61 0 -88 10 -135 52 -77 67 -75 43 -75 682 0 422 3 579 12 610 7 23 30 59 53
81 59 60 127 77 209 53z m-2336 -647 c21 -11 47 -30 59 -43 11 -12 149 -243
305 -513 l283 -490 0 -72 c0 -64 -3 -75 -31 -114 -78 -107 -235 -120 -321 -27
-12 12 -149 244 -304 513 -274 475 -283 492 -287 551 -7 105 48 180 158 215
34 11 94 2 138 -20z m4739 -4 c77 -41 125 -145 103 -227 -18 -68 -554 -988
-604 -1036 -99 -97 -257 -68 -321 59 -28 57 -32 111 -11 160 15 37 524 922
563 980 59 87 174 114 270 64z m-6438 -1744 c194 -107 929 -537 949 -556 39
-36 62 -91 62 -148 0 -126 -99 -218 -223 -207 -46 4 -104 35 -542 288 -269
155 -501 292 -513 304 -102 91 -78 270 43 334 74 39 133 35 224 -15z m8149 17
c79 -36 124 -106 124 -192 -1 -57 -22 -104 -65 -145 -34 -32 -955 -566 -1008
-585 -51 -18 -134 -5 -181 28 -62 43 -90 104 -86 181 7 116 2 112 518 411 250
145 482 277 515 293 70 34 122 37 183 9z m-5483 -579 c22 -10 51 -30 64 -44
12 -14 319 -405 680 -869 l658 -843 839 -5 839 -5 47 -28 c114 -66 140 -217
55 -314 -68 -77 -3 -73 -1017 -73 -1028 0 -950 -6 -1026 86 -102 124 -1387
1778 -1407 1811 -15 27 -22 54 -22 93 0 150 156 253 290 191z m-2270 -1780
c47 -22 99 -74 114 -114 16 -42 13 -124 -5 -163 -22 -46 -85 -100 -131 -113
-25 -7 -235 -11 -603 -11 l-565 0 -51 24 c-160 74 -162 290 -5 373 l44 23 581
0 c545 0 584 -2 621 -19z m8407 -14 c114 -66 140 -217 55 -314 -66 -75 -42
-73 -693 -73 l-580 0 -53 26 c-71 36 -104 86 -109 168 -5 71 15 121 66 169 60
57 55 57 687 54 l580 -2 47 -28z m-7901 -1820 c24 -13 57 -42 73 -65 55 -77
44 -202 -22 -265 -15 -14 -247 -153 -517 -308 -408 -235 -497 -283 -536 -287
-158 -15 -277 152 -209 293 11 23 30 51 43 63 21 19 959 565 1002 583 41 16
120 10 166 -14z m6314 4 c54 -25 942 -538 981 -567 18 -13 42 -44 54 -69 86
-178 -99 -365 -275 -278 -16 9 -237 134 -490 280 -500 288 -535 313 -553 398
-20 94 25 187 111 230 60 30 116 32 172 6z m-4975 -1345 c90 -44 133 -166 92
-258 -25 -57 -536 -942 -569 -986 -69 -91 -212 -100 -301 -18 -57 51 -84 166
-52 226 7 14 134 236 282 495 292 507 319 545 401 563 53 11 90 6 147 -22z
m3645 4 c23 -11 51 -30 62 -43 12 -12 148 -242 304 -512 250 -433 283 -496
287 -541 10 -116 -61 -207 -180 -229 -54 -10 -129 18 -170 63 -18 20 -159 255
-313 522 l-280 485 0 72 c0 63 3 76 30 114 59 83 170 113 260 69z m-1826 -489
c50 -26 98 -82 111 -131 7 -26 10 -227 8 -613 l-3 -574 -30 -49 c-23 -37 -44
-56 -84 -76 -83 -42 -154 -35 -225 24 -78 64 -76 40 -76 693 0 552 1 582 20
623 22 48 61 88 105 108 45 20 129 17 174 -5z"/>
</g>
</svg>
