<?xml version="1.0" standalone="no"?>
<!DOCTYPE svg PUBLIC "-//W3C//DTD SVG 20010904//EN"
 "http://www.w3.org/TR/2001/REC-SVG-20010904/DTD/svg10.dtd">
<svg version="1.0" xmlns="http://www.w3.org/2000/svg"
 width="1048.000000pt" height="1309.000000pt" viewBox="0 0 1048.000000 1309.000000"
 preserveAspectRatio="xMidYMid meet">
<metadata>
Created by potrace 1.16, written by Peter Selinger 2001-2019
</metadata>
<g transform="translate(0.000000,1309.000000) scale(0.100000,-0.100000)"
fill="#CCCCCC" stroke="none">
<path d="M5145 12998 c-160 -18 -229 -70 -341 -258 -412 -689 -1167 -1325
-2059 -1733 -676 -310 -1461 -519 -2280 -607 -55 -6 -125 -18 -156 -26 -112
-32 -212 -129 -256 -249 -17 -48 -18 -131 -21 -1715 -3 -1689 3 -2096 33
-2360 139 -1200 690 -2334 1684 -3465 133 -151 522 -547 706 -718 650 -604
1492 -1222 2288 -1678 106 -61 226 -127 266 -147 73 -36 77 -37 190 -37 138 0
137 0 446 177 768 441 1536 996 2200 1592 159 143 574 557 728 726 1006 1108
1598 2278 1751 3465 40 310 41 338 41 2250 0 1758 -1 1853 -18 1905 -40 121
-141 221 -256 254 -31 9 -101 21 -156 26 -341 37 -804 120 -1135 204 -1095
279 -1997 767 -2667 1443 -230 232 -435 498 -553 718 -24 44 -63 101 -88 127
-79 82 -210 122 -347 106z m-291 -2879 c58 -28 219 -150 333 -250 321 -283
653 -762 890 -1286 294 -650 482 -1408 510 -2057 l6 -160 35 40 c64 74 165
226 217 329 87 170 135 342 135 483 1 126 29 183 106 211 77 28 120 -1 259
-174 272 -339 454 -780 525 -1275 41 -284 43 -735 5 -990 -101 -669 -419
-1332 -971 -2020 -186 -232 -310 -369 -350 -386 -67 -28 -140 -11 -187 45 -44
53 -44 86 1 229 83 265 122 500 122 745 0 333 -63 634 -182 870 -75 150 -107
183 -108 111 0 -51 -54 -208 -110 -319 -60 -121 -133 -227 -225 -327 l-50 -54
0 285 c0 222 -4 313 -18 406 -102 690 -358 1316 -677 1658 -40 42 -75 77 -78
77 -4 0 -8 -53 -8 -118 -2 -134 -20 -217 -83 -366 -61 -148 -137 -275 -379
-636 -271 -404 -354 -540 -444 -728 -257 -535 -285 -1034 -91 -1625 42 -129
40 -162 -16 -218 -59 -59 -130 -68 -197 -24 -31 20 -209 223 -347 398 -563
707 -876 1381 -974 2097 -23 174 -23 531 1 695 87 601 347 1147 874 1834 66
86 219 275 339 421 372 451 402 487 501 618 255 337 397 602 448 838 24 114
22 296 -5 398 -12 44 -21 90 -21 104 0 67 73 142 139 142 18 0 52 -9 75 -21z"/>
</g>
</svg>
