<svg xmlns="http://www.w3.org/2000/svg" id="SvgjsSvg729574" width="4096" height="1717.7061346759795" version="1.1" xmlns:xlink="http://www.w3.org/1999/xlink" xmlns:svgjs="http://svgjs.com/svgjs"><defs id="SvgjsDefs729575"></defs><g id="SvgjsG729576" transform="translate(328, 328) scale(34.4)" opacity="1"><defs id="SvgjsDefs179458"></defs><g id="SvgjsG179459" transform="scale(0.21645021645021645)" opacity="1"><g id="SvgjsG179460" class="0EbMQdf8W" transform="translate(160.276327943843, 2.7494400883203696) scale(1)" light-content="false" fill="#000000"><path d="				M 54.621188596227036, 55.121188596227036				m 0, -55.121188596227036
				a 55.121188596227036, 55.121188596227036, 0, 1, 0, 1, 0
				Z
			"></path></g><g id="SvgjsG179461" class="owAImOUXT" transform="translate(162.65816411400237, 4.99792557282046) scale(1.0659811818735423)" light-content="true" non-strokable="false" fill="#e50914"><path d="M53.333 10v6.692c16.85 1.68 30 15.951 30 33.308 0 17.354-13.15 31.624-30 33.304V90C73.864 88.298 90 71.052 90 50c0-21.055-16.136-38.294-36.667-40zm-6.666 73.304c-16.843-1.68-30-15.95-30-33.304 0-17.356 13.157-31.628 30-33.308V10C26.14 11.706 10 28.945 10 50c0 21.052 16.14 38.298 36.667 40v-6.696z"></path><path d="M30.3 46.667C31.888 37.21 40.091 30 50 30s18.112 7.21 19.7 16.667h6.735C74.795 33.516 63.601 23.333 50 23.333c-13.594 0-24.792 10.183-26.436 23.334H30.3zm39.4 6.666C68.112 62.786 59.909 70 50 70s-18.112-7.214-19.7-16.667h-6.735C25.208 66.484 36.406 76.667 50 76.667c13.601 0 24.795-10.183 26.436-23.334H69.7z"></path><path d="M50 36.667c-7.363 0-13.333 5.97-13.333 13.333S42.637 63.333 50 63.333c7.366 0 13.333-5.97 13.333-13.333S57.366 36.667 50 36.667zm0 20a6.667 6.667 0 1 1 0-13.334 6.667 6.667 0 0 1 0 13.334z"></path></g><g id="SvgjsG179462" class="text" transform="translate(51.5, 109.03358939828561) scale(1)" light-content="false" fill="#000000"><path d="M11.26 0L51.5 0L19.5 -43.65L50.72 -84.97L13.9 -84.97L1.17 -66.95L-10.95 -84.97L-50.56 -84.97L-19.34 -42.1L-51.5 0L-13.44 0L-0.39 -18.17Z"></path></g><g id="SvgjsG179463" class="text" transform="translate(130.22112539556713, 110.78042122404462) scale(1)" light-content="false" fill="#e50914"><path d="M-18.33 -108.74L-18.33 0L18.33 0L18.33 -108.74Z"></path></g><g id="SvgjsG179464" class="text" transform="translate(322.33952819609937, 108.74) scale(1)" light-content="false" fill="#e50914"><path d="M-18.33 -80.31L-18.33 0L18.33 0L18.33 -80.31L50.18 -80.31L50.18 -108.74L-50.18 -108.74L-50.18 -80.31Z"></path></g><g id="SvgjsG179465" class="text" transform="translate(420.5210767365152, 108.86940767871025) scale(1)" light-content="false" fill="#000000"><path d="M41.48 -25.63L4.66 -25.63L39.77 -64.78L39.77 -84.97L-38.37 -84.97L-38.37 -59.34L-4.5 -59.34L-39.61 -20.19L-39.61 0L41.48 0Z"></path></g><g id="SvgjsG179466" class="text" transform="translate(341.2254353971403, 141.99254673789386) scale(1)" light-content="false" fill="#000000"><path d="M-103.35 -13.68L-103.35 -7.12C-104.36 -6.7 -105.42 -6.49 -106.54 -6.49C-108.41 -6.49 -109.92 -7.08 -111.04 -8.27C-112.17 -9.46 -112.73 -11.03 -112.73 -12.98C-112.73 -14.98 -112.16 -16.56 -111.02 -17.72C-109.88 -18.89 -108.35 -19.47 -106.42 -19.47C-104.17 -19.47 -102.23 -18.52 -100.6 -16.61L-95 -21.54C-96.34 -23.18 -98.01 -24.42 -100.03 -25.27C-102.04 -26.12 -104.32 -26.55 -106.87 -26.55C-109.69 -26.55 -112.21 -25.98 -114.45 -24.83C-116.69 -23.68 -118.43 -22.07 -119.68 -20.01C-120.93 -17.94 -121.55 -15.6 -121.55 -12.98C-121.55 -10.36 -120.93 -8.02 -119.68 -5.95C-118.43 -3.89 -116.71 -2.28 -114.51 -1.13C-112.31 0.02 -109.82 0.59 -107.05 0.59C-105.1 0.59 -103.11 0.31 -101.08 -0.26C-99.06 -0.83 -97.28 -1.64 -95.74 -2.71L-95.74 -13.68Z M-70.79 -8.2C-70.71 -9.38 -70.68 -10.04 -70.68 -10.16C-70.68 -12.36 -71.18 -14.25 -72.18 -15.83C-73.18 -17.42 -74.53 -18.61 -76.22 -19.43C-77.91 -20.25 -79.79 -20.65 -81.84 -20.65C-84.01 -20.65 -85.97 -20.21 -87.72 -19.32C-89.46 -18.43 -90.83 -17.19 -91.83 -15.59C-92.83 -14 -93.33 -12.19 -93.33 -10.16C-93.33 -8.16 -92.83 -6.35 -91.81 -4.75C-90.8 -3.14 -89.37 -1.88 -87.51 -0.98C-85.66 -0.08 -83.51 0.37 -81.06 0.37C-77.13 0.37 -74.18 -0.72 -72.2 -2.89L-76.57 -7.31C-77.29 -6.76 -77.95 -6.38 -78.56 -6.16C-79.16 -5.93 -79.91 -5.82 -80.8 -5.82C-81.84 -5.82 -82.7 -6.03 -83.4 -6.43C-84.09 -6.84 -84.58 -7.43 -84.88 -8.2ZM-83.92 -14.24C-83.35 -14.71 -82.63 -14.94 -81.76 -14.94C-80.9 -14.94 -80.18 -14.7 -79.61 -14.22C-79.05 -13.74 -78.67 -13.08 -78.5 -12.24L-85.03 -12.24C-84.85 -13.1 -84.48 -13.77 -83.92 -14.24Z M-53.1 -0.7L-55.1 -6.53C-55.65 -6.16 -56.28 -5.97 -56.99 -5.97C-57.51 -5.97 -57.93 -6.14 -58.26 -6.49C-58.58 -6.84 -58.74 -7.32 -58.74 -7.94L-58.74 -13.05L-54.58 -13.05L-54.58 -19.17L-58.74 -19.17L-58.74 -24.84L-67.12 -24.84L-67.12 -19.17L-69.9 -19.17L-69.9 -13.05L-67.12 -13.05L-67.12 -7.86C-67.12 -5.12 -66.35 -3.06 -64.82 -1.69C-63.29 -0.32 -61.1 0.37 -58.26 0.37C-56.08 0.37 -54.36 0.01 -53.1 -0.7Z M-36.21 -0.13C-34.17 0.35 -32.08 0.59 -29.92 0.59C-27.33 0.59 -25.12 0.2 -23.31 -0.57C-21.49 -1.35 -20.12 -2.4 -19.21 -3.73C-18.29 -5.05 -17.84 -6.53 -17.84 -8.16C-17.84 -10.04 -18.34 -11.52 -19.34 -12.61C-20.34 -13.7 -21.52 -14.48 -22.88 -14.96C-24.24 -15.44 -25.91 -15.87 -27.89 -16.24C-29.42 -16.54 -30.52 -16.82 -31.19 -17.08C-31.85 -17.34 -32.19 -17.72 -32.19 -18.24C-32.19 -19.33 -31.06 -19.88 -28.81 -19.88C-26.54 -19.88 -24.13 -19.23 -21.58 -17.95L-18.95 -24.29C-20.26 -25.03 -21.77 -25.59 -23.49 -25.98C-25.21 -26.36 -26.96 -26.55 -28.74 -26.55C-31.33 -26.55 -33.54 -26.17 -35.36 -25.4C-37.17 -24.63 -38.54 -23.58 -39.45 -22.25C-40.37 -20.91 -40.83 -19.43 -40.83 -17.8C-40.83 -15.92 -40.33 -14.43 -39.34 -13.33C-38.35 -12.23 -37.19 -11.44 -35.86 -10.96C-34.52 -10.48 -32.85 -10.02 -30.85 -9.6C-29.29 -9.28 -28.18 -8.99 -27.5 -8.71C-26.82 -8.44 -26.48 -8.03 -26.48 -7.49C-26.48 -7.02 -26.74 -6.67 -27.25 -6.43C-27.77 -6.2 -28.64 -6.08 -29.85 -6.08C-31.26 -6.08 -32.73 -6.3 -34.26 -6.73C-35.8 -7.16 -37.18 -7.74 -38.42 -8.45L-41.23 -2.08C-39.92 -1.26 -38.25 -0.61 -36.21 -0.13Z M5.97 -8.2C6.04 -9.38 6.08 -10.04 6.08 -10.16C6.08 -12.36 5.58 -14.25 4.58 -15.83C3.58 -17.42 2.23 -18.61 0.54 -19.43C-1.16 -20.25 -3.03 -20.65 -5.08 -20.65C-7.26 -20.65 -9.21 -20.21 -10.96 -19.32C-12.7 -18.43 -14.07 -17.19 -15.07 -15.59C-16.07 -14 -16.58 -12.19 -16.58 -10.16C-16.58 -8.16 -16.07 -6.35 -15.06 -4.75C-14.04 -3.14 -12.61 -1.88 -10.75 -0.98C-8.9 -0.08 -6.75 0.37 -4.3 0.37C-0.37 0.37 2.58 -0.72 4.56 -2.89L0.19 -7.31C-0.53 -6.76 -1.19 -6.38 -1.8 -6.16C-2.4 -5.93 -3.15 -5.82 -4.04 -5.82C-5.08 -5.82 -5.95 -6.03 -6.64 -6.43C-7.33 -6.84 -7.82 -7.43 -8.12 -8.2ZM-7.16 -14.24C-6.59 -14.71 -5.87 -14.94 -5.01 -14.94C-4.14 -14.94 -3.42 -14.7 -2.86 -14.22C-2.29 -13.74 -1.92 -13.08 -1.74 -12.24L-8.27 -12.24C-8.1 -13.1 -7.73 -13.77 -7.16 -14.24Z M13.44 -0.96C15.26 -0.07 17.32 0.37 19.62 0.37C22.09 0.37 24.2 -0.16 25.96 -1.22C27.71 -2.29 28.92 -3.76 29.59 -5.64L23.1 -8.83C22.31 -7.05 21.14 -6.16 19.58 -6.16C18.59 -6.16 17.77 -6.5 17.11 -7.19C16.46 -7.89 16.13 -8.87 16.13 -10.16C16.13 -11.42 16.46 -12.4 17.11 -13.09C17.77 -13.78 18.59 -14.13 19.58 -14.13C21.14 -14.13 22.31 -13.24 23.1 -11.46L29.59 -14.65C28.92 -16.53 27.71 -18 25.96 -19.06C24.2 -20.12 22.09 -20.65 19.62 -20.65C17.32 -20.65 15.26 -20.21 13.44 -19.32C11.63 -18.43 10.2 -17.19 9.18 -15.59C8.15 -14 7.64 -12.19 7.64 -10.16C7.64 -8.13 8.15 -6.32 9.18 -4.71C10.2 -3.1 11.63 -1.85 13.44 -0.96Z M53.69 -20.28L45.31 -20.28L45.31 -10.75C45.31 -9.34 45.04 -8.31 44.5 -7.66C43.95 -7 43.27 -6.67 42.46 -6.67C41.59 -6.67 40.94 -6.97 40.49 -7.56C40.05 -8.16 39.83 -9.15 39.83 -10.53L39.83 -20.28L31.45 -20.28L31.45 -9.08C31.45 -5.92 32.22 -3.55 33.78 -1.98C35.34 -0.41 37.4 0.37 39.97 0.37C41.09 0.37 42.14 0.18 43.13 -0.2C44.11 -0.59 44.98 -1.16 45.72 -1.93L45.72 0L53.69 0Z M71.94 -20.65C69.05 -20.65 66.86 -19.8 65.37 -18.1L65.37 -20.28L57.4 -20.28L57.4 0L65.78 0L65.78 -9.01C65.78 -11.93 67.22 -13.39 70.08 -13.39C70.65 -13.39 71.27 -13.34 71.94 -13.24Z M95.6 -8.2C95.67 -9.38 95.71 -10.04 95.71 -10.16C95.71 -12.36 95.21 -14.25 94.21 -15.83C93.2 -17.42 91.86 -18.61 90.16 -19.43C88.47 -20.25 86.6 -20.65 84.55 -20.65C82.37 -20.65 80.41 -20.21 78.67 -19.32C76.93 -18.43 75.55 -17.19 74.55 -15.59C73.55 -14 73.05 -12.19 73.05 -10.16C73.05 -8.16 73.56 -6.35 74.57 -4.75C75.58 -3.14 77.02 -1.88 78.87 -0.98C80.73 -0.08 82.88 0.37 85.32 0.37C89.26 0.37 92.21 -0.72 94.19 -2.89L89.81 -7.31C89.09 -6.76 88.43 -6.38 87.83 -6.16C87.22 -5.93 86.47 -5.82 85.58 -5.82C84.55 -5.82 83.68 -6.03 82.99 -6.43C82.3 -6.84 81.8 -7.43 81.51 -8.2ZM82.47 -14.24C83.04 -14.71 83.75 -14.94 84.62 -14.94C85.49 -14.94 86.2 -14.7 86.77 -14.22C87.34 -13.74 87.71 -13.08 87.88 -12.24L81.36 -12.24C81.53 -13.1 81.9 -13.77 82.47 -14.24Z M120.77 -27.51L112.39 -27.51L112.39 -18.91C111.21 -20.07 109.49 -20.65 107.24 -20.65C105.46 -20.65 103.82 -20.23 102.33 -19.38C100.83 -18.52 99.64 -17.3 98.77 -15.7C97.89 -14.11 97.45 -12.26 97.45 -10.16C97.45 -8.06 97.89 -6.2 98.77 -4.6C99.64 -2.99 100.83 -1.76 102.33 -0.91C103.82 -0.06 105.46 0.37 107.24 0.37C109.74 0.37 111.59 -0.31 112.8 -1.67L112.8 0L120.77 0ZM111.62 -7.21C111 -6.51 110.21 -6.16 109.24 -6.16C108.28 -6.16 107.49 -6.51 106.87 -7.21C106.25 -7.92 105.94 -8.9 105.94 -10.16C105.94 -11.42 106.25 -12.4 106.87 -13.09C107.49 -13.78 108.28 -14.13 109.24 -14.13C110.21 -14.13 111 -13.78 111.62 -13.09C112.23 -12.4 112.54 -11.42 112.54 -10.16C112.54 -8.9 112.23 -7.92 111.62 -7.21Z"></path></g></g></g></svg>